<!-- Generated by IcoMoon.io -->
<svg version="1.1" xmlns="http://www.w3.org/2000/svg" width="32" height="32" viewBox="0 0 32 32">
<title>clock</title>
<path d="M16 32c8.824 0 16-7.176 16-16 0-8.822-7.178-16-16-16s-16 7.178-16 16c0 8.824 7.176 16 16 16zM16 2.296c7.56 0 13.704 6.144 13.704 13.704s-6.144 13.704-13.704 13.704c-7.56 0-13.704-6.144-13.704-13.704s6.144-13.704 13.704-13.704zM14.468 16.032v0-9.844c0-0.634 0.516-1.148 1.15-1.148 0.632 0 1.148 0.514 1.148 1.148v8.698h7.22c0.634 0.002 1.148 0.514 1.148 1.148 0 0.632-0.514 1.146-1.148 1.146h-8.37c-0.634 0-1.148-0.514-1.148-1.146v-0.002z"></path>
</svg>
