<!-- Generated by IcoMoon.io -->
<svg version="1.1" xmlns="http://www.w3.org/2000/svg" width="32" height="32" viewBox="0 0 32 32">
<title>folder</title>
<path d="M9.66 0c1.365 0 2.136 0.582 3.146 1.779l2.289 2.793h13.283c1.979 0.001 3.622 1.766 3.622 3.919v19.606c0 2.152-1.609 3.903-3.588 3.903h-24.824c-1.978 0-3.588-1.751-3.588-3.903v-24.178c0-2.152 1.644-3.918 3.622-3.919h6.038zM28.378 9.143h-24.755c-1.444 0.001-2.415 1.042-2.415 2.612v16.326c0 1.571 0.972 2.612 2.415 2.612h24.755c1.444-0.001 2.415-1.042 2.415-2.612v-16.326c0-1.571-0.971-2.612-2.415-2.612zM27.17 14.367c0.269 0.001 0.604 0.362 0.604 0.653s-0.336 0.653-0.604 0.653h-6.642c-0.268 0-0.604-0.362-0.604-0.653s0.335-0.652 0.604-0.653h6.642zM27.17 11.756c0.269 0.001 0.604 0.362 0.604 0.653s-0.335 0.652-0.604 0.653h-6.642c-0.268 0-0.604-0.362-0.604-0.653s0.335-0.652 0.604-0.653h6.642zM9.66 1.306h-6.038c-1.444 0.001-2.415 1.042-2.415 2.612v5.224c0.655-0.761 1.348-1.265 2.38-1.266h24.824c1.032 0.001 1.688 0.484 2.38 1.266v-0.653c0-1.571-0.971-2.612-2.415-2.612h-13.283c-0.138-0.003-1.116-0.548-1.208-0.653l-1.788-2.724c-0.002-0.002-0.004-0.004-0.005-0.006-0.828-0.982-1.34-1.188-2.434-1.188z"></path>
</svg>
