<!-- Generated by IcoMoon.io -->
<svg version="1.1" xmlns="http://www.w3.org/2000/svg" width="32" height="32" viewBox="0 0 32 32">
<title>tooth</title>
<path d="M31.941 7.518c-0.044-0.927-0.799-1.909-1.755-2.284l-12.662-4.976c-0.424-0.166-0.97-0.258-1.538-0.258s-1.114 0.092-1.537 0.258l-12.663 4.976c-0.958 0.376-1.709 1.361-1.746 2.289-0.019 0.468-0.431 11.508 1.9 15.125 2.321 3.603 12.076 8.781 12.49 9 0.429 0.227 0.984 0.352 1.563 0.352 0.573 0 1.124-0.123 1.551-0.347 0.418-0.219 10.261-5.4 12.584-9.005 2.332-3.619 1.837-14.662 1.814-15.13zM28.98 22.237c-2.097 3.255-12.213 8.593-12.312 8.645-0.161 0.084-0.415 0.135-0.677 0.135-0.265 0-0.52-0.051-0.683-0.137-0.097-0.052-10.382-5.732-12.481-8.989-1.734-2.691-1.796-11.245-1.674-14.314 0.013-0.341 0.976-1.354 1.328-1.492l12.663-4.975c0.203-0.079 0.517-0.127 0.84-0.127s0.638 0.048 0.841 0.127l12.663 4.975c0.353 0.14 1.32 1.155 1.336 1.497 0.146 3.068-0.112 11.965-1.846 14.655zM20.771 6.743c1.733 0 3.324 0.632 4.479 1.779 1.095 1.087 1.698 2.517 1.698 4.027 0 2.051-0.856 5.025-2.289 7.953-0.639 1.306-1.318 2.437-1.962 3.27-0.806 1.043-1.519 1.549-2.178 1.549-0.316-0.001-0.89-0.115-1.197-0.877-0.252-0.628-0.476-1.353-0.711-2.119-0.353-1.144-0.717-2.328-1.19-3.208-0.445-0.827-0.897-1.229-1.379-1.229h-0.082c-1.13 0-1.98 2.659-2.542 4.419-0.248 0.774-0.48 1.502-0.74 2.14-0.312 0.765-0.892 0.88-1.21 0.88-0.661 0-1.374-0.499-2.179-1.526-0.646-0.824-1.324-1.944-1.959-3.239-1.426-2.906-2.278-5.902-2.278-8.013 0-1.51 0.604-2.94 1.699-4.027 1.155-1.147 2.746-1.779 4.479-1.779 1.372 0 2.804 0.703 3.85 1.216 0.25 0.123 0.749 0.419 0.922 0.419 0.174 0 0.675-0.296 0.925-0.419 1.050-0.514 2.485-1.216 3.846-1.216zM16.041 16.709c1.060 0.010 1.897 0.632 2.58 1.901 0.525 0.975 0.905 2.21 1.272 3.404 0.23 0.746 0.445 1.449 0.682 2.035 0.015 0.036 0.049 0.049 0.084 0.020 0.272-0.216 0.416-0.288 0.94-0.964 0.588-0.761 1.242-1.852 1.839-3.073 1.344-2.747 2.179-5.614 2.179-7.484 0-2.273-1.812-4.625-4.846-4.625-1.020 0-2.281 0.617-3.202 1.068-0.169 0.083-0.301 0.152-0.417 0.214-0.047 0.025-0.095 0.064-0.095 0.107 0 0.060 0.527 0.213 0.785 0.301 1.628 0.554 3.876 0.312 3.876 0.441 0 0.189-1.905 0.536-2.829 0.536-0.898 0-1.77-0.157-2.593-0.467-0.205-0.077-0.388-0.17-0.588-0.275-0.378-0.198-0.699-0.404-0.936-0.561-0.073-0.049-0.152-0.102-0.23-0.156-0.195-0.132-0.396-0.269-0.533-0.347-0.957-0.539-1.996-0.861-2.78-0.861-3.034 0-4.846 2.352-4.846 4.625 0 1.928 0.83 4.819 2.167 7.543 0.593 1.207 1.243 2.285 1.832 3.036 0.533 0.68 0.785 0.941 0.949 0.985 0.067 0.017 0.084-0.040 0.095-0.067 0.243-0.597 0.469-1.304 0.708-2.052 0.382-1.197 0.777-2.431 1.3-3.398 0.68-1.256 1.495-1.873 2.525-1.887h0.082z"></path>
</svg>
