<?xml version="1.0" encoding="UTF-8" standalone="no"?><!DOCTYPE svg PUBLIC "-//W3C//DTD SVG 1.1//EN" "http://www.w3.org/Graphics/SVG/1.1/DTD/svg11.dtd"><svg width="100%" height="100%" viewBox="0 0 92 130" version="1.1" xmlns="http://www.w3.org/2000/svg" xmlns:xlink="http://www.w3.org/1999/xlink" xml:space="preserve" style="fill-rule:evenodd;clip-rule:evenodd;stroke-linejoin:round;stroke-miterlimit:1.41421;"><path d="M37.065,130c15.519,0 28.478,-4.003 39.061,-11.827c10.583,-8.007 15.874,-19.292 15.874,-34.052c0,-12.938 -4.561,-23.315 -13.867,-31.139c-9.123,-7.823 -20.801,-11.826 -35.226,-11.826c-2.373,0 -4.929,0.182 -7.851,0.728l1.644,-14.045l46.542,0l0,-27.839l-70.826,0l-8.399,72.823c11.32,-3.827 21.545,-5.831 30.674,-5.831c15.337,0 24.284,6.742 24.284,17.129c0,11.845 -10.225,17.129 -23.554,17.129c-12.05,0 -23.918,-3.644 -35.421,-10.751l0,30.403c10.773,6.005 23.006,9.098 37.065,9.098Z" style="fill:#0561a4;fill-rule:nonzero;"/></svg>