<?xml version="1.0" encoding="UTF-8" standalone="no"?><!DOCTYPE svg PUBLIC "-//W3C//DTD SVG 1.1//EN" "http://www.w3.org/Graphics/SVG/1.1/DTD/svg11.dtd"><svg width="100%" height="100%" viewBox="0 0 50 50" version="1.1" xmlns="http://www.w3.org/2000/svg" xmlns:xlink="http://www.w3.org/1999/xlink" xml:space="preserve" style="fill-rule:evenodd;clip-rule:evenodd;stroke-linejoin:round;stroke-miterlimit:1.41421;"><g><clipPath id="_clip1"><rect x="0" y="0.705" width="50" height="48.98"/></clipPath><g clip-path="url(#_clip1)"><path d="M4.241,10.052l1.359,-0.295c1.566,-0.339 2.563,-1.889 2.224,-3.455l-0.713,-3.309c-0.291,-1.327 -1.487,-2.288 -2.846,-2.288c-0.204,0 -0.411,0.025 -0.614,0.068l-1.359,0.295c-0.757,0.164 -1.407,0.614 -1.826,1.268c-0.423,0.653 -0.566,1.43 -0.399,2.183l0.719,3.31c0.286,1.326 1.482,2.291 2.842,2.291c0.203,0 0.41,-0.024 0.613,-0.068Zm-1.861,-2.57l-0.718,-3.304c-0.071,-0.332 -0.008,-0.675 0.176,-0.962c0.186,-0.286 0.47,-0.482 0.801,-0.554l1.359,-0.295c0.088,-0.019 0.179,-0.027 0.267,-0.027c0.598,0 1.12,0.418 1.247,1l0.718,3.308c0.148,0.686 -0.291,1.363 -0.977,1.515l-1.359,0.295c-0.678,0.147 -1.371,-0.307 -1.514,-0.976Zm46.539,27.754l-12.846,-12.819c-0.965,-0.965 -2.782,-1.714 -4.145,-1.714l-1.778,0l0,-2.81c1.602,0 2.906,-1.172 2.906,-2.611c0,-1.443 -1.304,-2.615 -2.906,-2.615l-8.191,0c-1.603,0 -2.906,1.172 -2.906,2.615c0,1.439 1.303,2.611 2.906,2.611l0,2.81l-1.491,0c-0.936,0 -2.332,-0.579 -2.994,-1.236l-8.098,-8.1c-1.094,-1.096 -3.015,-1.096 -4.111,0l-0.984,0.985c-0.546,0.546 -0.849,1.276 -0.849,2.053c0,0.782 0.303,1.51 0.849,2.057l9.746,9.73c0.964,0.964 2.782,1.717 4.145,1.717l5.026,0l0,6.637l-3.363,0c-0.451,0 -0.818,0.367 -0.818,0.817l0,3.365l-1.794,0c-1.602,0 -2.906,1.303 -2.906,2.906l0,4.439c0,1.603 1.304,2.907 2.906,2.907l17.738,0c1.602,0 2.905,-1.304 2.905,-2.907l0,-4.439c0,-1.603 -1.303,-2.906 -2.905,-2.906l-1.794,0l0,-3.365c0,-0.45 -0.366,-0.817 -0.817,-0.817l-3.364,0l0,-6.637l0.666,0c0.933,0 2.332,0.579 2.993,1.236l11.185,11.185c0.546,0.546 1.275,0.849 2.053,0.849c0.777,0 1.506,-0.299 2.056,-0.849l0.984,-0.985c0.546,-0.546 0.849,-1.276 0.849,-2.052c-0.004,-0.782 -0.303,-1.511 -0.853,-2.057Zm-28.235,-19.954c0,-0.53 0.585,-0.981 1.275,-0.981l8.191,0c0.69,0 1.276,0.451 1.276,0.981c0,0.53 -0.586,0.976 -1.276,0.976l-8.191,0c-0.69,0 -1.275,-0.446 -1.275,-0.976Zm2.909,2.611l4.922,0l0,2.81l-4.922,0l0,-2.81Zm12.64,23.741l0,4.439c0,0.703 -0.571,1.272 -1.272,1.272l-17.742,0c-0.701,0 -1.271,-0.569 -1.271,-1.272l0,-4.439c0,-0.702 0.57,-1.276 1.271,-1.276l17.742,0c0.701,0 1.272,0.574 1.272,1.276Zm-4.7,-2.906l-10.882,0l0,-2.547l10.882,0l0,2.547Zm-4.181,-4.182l-2.523,0l0,-6.641l2.523,0l0,6.641Zm2.3,-8.27l-11.48,0c-0.932,0 -2.332,-0.579 -2.993,-1.24l-9.742,-9.73c-0.239,-0.24 -0.371,-0.558 -0.371,-0.901c0,-0.339 0.132,-0.661 0.371,-0.901l0.984,-0.985c0.239,-0.238 0.559,-0.37 0.901,-0.37c0.339,0 0.662,0.132 0.901,0.37l8.099,8.1c0.962,0.965 2.783,1.718 4.146,1.718l3.125,0l4.926,-0.003l3.413,0c0.932,0 2.327,0.577 2.989,1.234l10.559,10.536l-2.675,2.89l-9.008,-9.005c-0.965,-0.96 -2.782,-1.713 -4.145,-1.713Zm18.115,11.914l-0.983,0.983c-0.479,0.479 -1.324,0.479 -1.802,0l-1.025,-1.02l2.675,-2.894l1.135,1.133c0.24,0.239 0.372,0.558 0.372,0.901c0,0.339 -0.132,0.657 -0.372,0.897Z" style="fill:#0561a4;fill-rule:nonzero;"/></g></g></svg>