<?xml version="1.0" encoding="UTF-8" standalone="no"?><!DOCTYPE svg PUBLIC "-//W3C//DTD SVG 1.1//EN" "http://www.w3.org/Graphics/SVG/1.1/DTD/svg11.dtd"><svg width="100%" height="100%" viewBox="0 0 13 16" version="1.1" xmlns="http://www.w3.org/2000/svg" xmlns:xlink="http://www.w3.org/1999/xlink" xml:space="preserve" style="fill-rule:evenodd;clip-rule:evenodd;stroke-linejoin:round;stroke-miterlimit:1.41421;"><g><g><clipPath id="_clip1"><rect x="0" y="0" width="13" height="16"/></clipPath><g clip-path="url(#_clip1)"><path d="M6.507,0.02c-3.584,0 -6.507,2.833 -6.507,6.319c0,0.422 0.042,0.844 0.126,1.252c0,0.028 0.015,0.055 0.015,0.096c0.716,3.118 5.762,7.802 5.973,7.993c0.112,0.109 0.252,0.15 0.393,0.15c0.141,0 0.281,-0.055 0.394,-0.15c0.21,-0.204 5.227,-4.875 5.945,-7.925c0,-0.027 0.013,-0.054 0.013,-0.082c0.099,-0.436 0.141,-0.885 0.141,-1.334c0.014,-3.486 -2.909,-6.319 -6.493,-6.319Zm5.228,7.449l0,0.041c-0.534,2.26 -4.033,5.828 -5.228,6.985c-1.195,-1.157 -4.708,-4.725 -5.242,-7.04c0,-0.027 0,-0.04 -0.014,-0.068c-0.071,-0.354 -0.113,-0.708 -0.113,-1.062c0,-2.86 2.404,-5.202 5.355,-5.202c2.952,0 5.369,2.329 5.369,5.202c0,0.395 -0.042,0.777 -0.127,1.144Z" style="fill:#0561a4;fill-rule:nonzero;"/><path d="M6.507,3.574c-1.209,0 -2.178,0.954 -2.178,2.111c0,1.157 0.983,2.111 2.178,2.111c1.195,0 2.179,-0.94 2.179,-2.111c0,-1.171 -0.97,-2.111 -2.179,-2.111Zm0,3.119c-0.576,0 -1.04,-0.45 -1.04,-1.008c0,-0.558 0.464,-1.008 1.04,-1.008c0.576,0 1.04,0.45 1.04,1.008c0,0.558 -0.464,1.008 -1.04,1.008Z" style="fill:#0561a4;fill-rule:nonzero;"/></g></g></g></svg>