<?xml version="1.0" encoding="UTF-8" standalone="no"?><!DOCTYPE svg PUBLIC "-//W3C//DTD SVG 1.1//EN" "http://www.w3.org/Graphics/SVG/1.1/DTD/svg11.dtd"><svg width="100%" height="100%" viewBox="0 0 16 13" version="1.1" xmlns="http://www.w3.org/2000/svg" xmlns:xlink="http://www.w3.org/1999/xlink" xml:space="preserve" style="fill-rule:evenodd;clip-rule:evenodd;stroke-linejoin:round;stroke-miterlimit:1.41421;"><g><g><path d="M14.034,0.033l-12.079,0c-1.079,0 -1.955,0.931 -1.955,2.077l0,8.77c0,1.145 0.876,2.076 1.955,2.076l12.075,0c1.079,0 1.955,-0.931 1.955,-2.076l0,-8.767c0.003,-1.145 -0.873,-2.08 -1.951,-2.08Zm1.061,10.847c0,0.622 -0.476,1.127 -1.061,1.127l-12.079,0c-0.586,0 -1.062,-0.505 -1.062,-1.127l0,-8.767c0,-0.622 0.476,-1.127 1.062,-1.127l12.075,0c0.586,0 1.062,0.505 1.062,1.127l0,8.767l0.003,0Z" style="fill:#0561a4;fill-rule:nonzero;"/><path d="M10.081,6.386l4.932,-4.7c0.182,-0.176 0.198,-0.475 0.033,-0.671c-0.165,-0.194 -0.447,-0.211 -0.632,-0.035l-6.413,6.116l-1.052,-0.998c-0.003,-0.004 -0.006,-0.007 -0.006,-0.011c-0.024,-0.024 -0.047,-0.045 -0.073,-0.067l-5.323,-4.984c-0.186,-0.176 -0.467,-0.159 -0.632,0.038c-0.166,0.197 -0.149,0.496 0.036,0.671l4.999,4.672l0.672,0.64l1.084,1.029c0.086,0.081 0.192,0.12 0.298,0.12c0.106,0 0.215,-0.042 0.298,-0.123l1.115,-1.061l0.664,-0.636Z" style="fill:#0561a4;fill-rule:nonzero;"/></g></g></svg>