<?xml version="1.0" encoding="UTF-8" standalone="no"?><!DOCTYPE svg PUBLIC "-//W3C//DTD SVG 1.1//EN" "http://www.w3.org/Graphics/SVG/1.1/DTD/svg11.dtd"><svg width="100%" height="100%" viewBox="0 0 45 50" version="1.1" xmlns="http://www.w3.org/2000/svg" xmlns:xlink="http://www.w3.org/1999/xlink" xml:space="preserve" style="fill-rule:evenodd;clip-rule:evenodd;stroke-linejoin:round;stroke-miterlimit:1.41421;"><path id="Forma-1" d="M44.917,11.747c-0.062,-1.448 -1.123,-2.983 -2.467,-3.569l-17.807,-7.775c-0.596,-0.26 -1.364,-0.403 -2.163,-0.403c-0.798,0 -1.566,0.143 -2.162,0.403l-17.807,7.775c-1.347,0.588 -2.403,2.126 -2.455,3.577c-0.027,0.732 -0.607,17.982 2.671,23.633c3.265,5.63 16.981,13.721 17.563,14.062c0.604,0.355 1.385,0.55 2.198,0.55c0.807,0 1.582,-0.192 2.182,-0.542c0.588,-0.342 14.43,-8.438 17.696,-14.07c3.28,-5.655 2.583,-22.909 2.551,-23.641Zm-4.163,22.999c-2.95,5.086 -17.175,13.427 -17.313,13.508c-0.227,0.132 -0.583,0.211 -0.953,0.211c-0.372,0 -0.732,-0.08 -0.96,-0.214c-0.137,-0.081 -14.6,-8.957 -17.551,-14.045c-2.438,-4.204 -2.525,-17.571 -2.353,-22.366c0.019,-0.533 1.372,-2.115 1.867,-2.332l17.807,-7.774c0.285,-0.124 0.728,-0.199 1.182,-0.199c0.456,0 0.897,0.075 1.183,0.199l17.807,7.774c0.497,0.218 1.857,1.804 1.88,2.339c0.205,4.794 -0.158,18.696 -2.596,22.899Zm-11.544,-24.21c-1.915,0 -3.934,1.097 -5.409,1.9c-0.352,0.191 -1.057,0.654 -1.301,0.654c-0.243,0 -0.944,-0.462 -1.296,-0.654c-1.471,-0.801 -3.485,-1.9 -5.414,-1.9c-2.436,0 -4.673,0.988 -6.298,2.78c-1.54,1.699 -2.388,3.933 -2.388,6.292c0,3.299 1.197,7.98 3.203,12.521c0.894,2.023 1.846,3.773 2.755,5.061c1.132,1.605 2.134,2.385 3.065,2.385c0.446,0 1.261,-0.179 1.7,-1.375c0.365,-0.996 0.693,-2.133 1.041,-3.343c0.79,-2.75 1.985,-6.905 3.574,-6.905l0.116,0c0.678,0 1.312,0.629 1.939,1.921c0.666,1.375 1.178,3.224 1.674,5.012c0.332,1.197 0.645,2.329 1,3.311c0.431,1.191 1.239,1.369 1.683,1.37c0.927,0 1.929,-0.792 3.063,-2.421c0.906,-1.302 1.86,-3.069 2.759,-5.11c2.016,-4.576 3.219,-9.222 3.219,-12.427c0,-2.359 -0.848,-4.593 -2.388,-6.292c-1.624,-1.792 -3.861,-2.78 -6.297,-2.78Zm-6.652,15.572c1.491,0.016 2.667,0.988 3.628,2.971c0.739,1.524 1.273,3.453 1.79,5.319c0.323,1.165 0.626,2.264 0.958,3.179c0.021,0.057 0.069,0.076 0.119,0.032c0.383,-0.337 0.585,-0.45 1.321,-1.507c0.827,-1.189 1.746,-2.893 2.586,-4.801c1.89,-4.292 3.064,-8.772 3.064,-11.694c0,-3.552 -2.549,-7.227 -6.814,-7.227c-1.434,0 -3.208,0.964 -4.503,1.669c-0.238,0.129 -0.423,0.238 -0.586,0.334c-0.067,0.039 -0.134,0.1 -0.134,0.167c0,0.094 0.741,0.333 1.104,0.47c2.289,0.865 5.451,0.488 5.451,0.689c0,0.295 -2.679,0.838 -3.979,0.838c-1.263,0 -2.49,-0.246 -3.647,-0.73c-0.289,-0.12 -0.545,-0.266 -0.827,-0.429c-0.531,-0.309 -0.982,-0.631 -1.316,-0.877c-0.103,-0.076 -0.213,-0.159 -0.324,-0.244c-0.273,-0.207 -0.556,-0.421 -0.75,-0.542c-1.345,-0.842 -2.806,-1.345 -3.909,-1.345c-4.265,0 -6.814,3.675 -6.814,7.227c0,3.013 1.167,7.529 3.047,11.786c0.833,1.886 1.748,3.571 2.576,4.744c0.749,1.063 1.103,1.471 1.335,1.539c0.094,0.027 0.119,-0.063 0.134,-0.104c0.342,-0.933 0.66,-2.037 0.996,-3.206c0.538,-1.87 1.092,-3.799 1.828,-5.31c0.956,-1.963 2.102,-2.927 3.55,-2.948l0.116,0Z" style="fill:#0561a4;"/></svg>