<?xml version="1.0" encoding="UTF-8" standalone="no"?><!DOCTYPE svg PUBLIC "-//W3C//DTD SVG 1.1//EN" "http://www.w3.org/Graphics/SVG/1.1/DTD/svg11.dtd"><svg width="100%" height="100%" viewBox="0 0 16 16" version="1.1" xmlns="http://www.w3.org/2000/svg" xmlns:xlink="http://www.w3.org/1999/xlink" xml:space="preserve" style="fill-rule:evenodd;clip-rule:evenodd;stroke-linejoin:round;stroke-miterlimit:1.41421;"><g><path id="Forma-1" d="M8,16c4.412,0 8,-3.588 8,-8c0,-4.411 -3.589,-8 -8,-8c-4.411,0 -8,3.589 -8,8c0,4.412 3.588,8 8,8Zm0,-14.852c3.78,0 6.852,3.072 6.852,6.852c0,3.78 -3.072,6.852 -6.852,6.852c-3.78,0 -6.852,-3.072 -6.852,-6.852c0,-3.78 3.072,-6.852 6.852,-6.852Zm-0.766,6.868l0,0l0,-4.922c0,-0.317 0.258,-0.574 0.575,-0.574c0.316,0 0.574,0.257 0.574,0.574l0,4.349l3.61,0c0.317,0.001 0.574,0.257 0.574,0.574c0,0.316 -0.257,0.573 -0.574,0.573l-4.185,0c-0.317,0 -0.574,-0.257 -0.574,-0.573l0,-0.001Z" style="fill:#0561a4;"/></g></svg>