<?xml version="1.0" encoding="UTF-8" standalone="no"?><!DOCTYPE svg PUBLIC "-//W3C//DTD SVG 1.1//EN" "http://www.w3.org/Graphics/SVG/1.1/DTD/svg11.dtd"><svg width="100%" height="100%" viewBox="0 0 50 50" version="1.1" xmlns="http://www.w3.org/2000/svg" xmlns:xlink="http://www.w3.org/1999/xlink" xml:space="preserve" style="fill-rule:evenodd;clip-rule:evenodd;stroke-linejoin:round;stroke-miterlimit:1.41421;"><g><path d="M40.639,3.761c0.849,-0.857 1.963,-1.285 3.078,-1.285c1.115,0 2.229,0.428 3.077,1.284c1.698,1.714 1.698,4.504 0,6.218c-1.696,1.713 -4.458,1.713 -6.155,0c-1.697,-1.714 -1.697,-4.504 0,-6.217Zm-21.637,19.572c-1.13,-1.142 -1.13,-3 -0.001,-4.143c0,0 0.001,0 0.001,0c0,0 0,0 0,0c0.548,-0.553 1.276,-0.858 2.051,-0.858c0.774,0 1.503,0.305 2.051,0.858l0.788,0.796l-4.102,4.142l-0.788,-0.795Zm13.093,2.176l0.275,-0.278c0.913,-0.922 1.416,-2.148 1.416,-3.452c0,-0.972 -0.28,-1.9 -0.801,-2.692l7.023,-7.092c1.101,0.812 2.405,1.219 3.709,1.219c1.61,0 3.22,-0.619 4.444,-1.856l0.001,0c2.451,-2.475 2.451,-6.503 -0.001,-8.978c-2.449,-2.474 -6.437,-2.475 -8.889,0c-2.219,2.24 -2.429,5.753 -0.631,8.234l-7.024,7.093c-1.875,-1.253 -4.432,-1.046 -6.083,0.621l-0.275,0.278l-0.788,-0.796c-0.913,-0.923 -2.127,-1.431 -3.418,-1.431c-0.963,0 -1.882,0.283 -2.667,0.809l-4.96,-5.011c-1.542,-1.557 -3.846,-2.162 -6.014,-1.579c-1.622,0.434 -3.315,-0.092 -4.418,-1.372c-1.437,-1.672 -1.412,-4.173 0.059,-5.817c0.839,-0.938 1.988,-1.454 3.235,-1.454c0.534,0 0.967,-0.438 0.967,-0.977c0,-0.539 -0.433,-0.976 -0.967,-0.976c-1.775,0 -3.477,0.765 -4.67,2.099c-2.125,2.375 -2.161,5.988 -0.083,8.406c1.592,1.847 4.034,2.605 6.373,1.978c1.505,-0.404 3.095,0.007 4.15,1.073l4.962,5.011c-1.24,1.895 -1.035,4.477 0.615,6.144l0.788,0.796l-11.441,11.554c-0.378,0.381 -0.378,0.999 0,1.38c0.377,0.382 0.989,0.382 1.367,0l18.553,-18.735c1.13,-1.142 2.97,-1.142 4.1,0c1.131,1.142 1.131,3 0,4.143l-23.56,23.792l-4.101,-4.142l5.008,-5.058c0.378,-0.381 0.378,-0.999 0,-1.38c-0.377,-0.381 -0.989,-0.381 -1.367,0l-5.691,5.748c-0.378,0.381 -0.378,0.999 0,1.38l5.467,5.523c0.182,0.183 0.428,0.286 0.684,0.286l0,0c0.257,0 0.502,-0.103 0.684,-0.286l17.817,-17.991l4.785,-4.834l15.936,16.094l-4.102,4.142l-14.152,-14.291c-0.377,-0.382 -0.989,-0.382 -1.367,0c-0.377,0.381 -0.377,0.999 0,1.38l14.836,14.982c0.181,0.183 0.427,0.286 0.683,0.286c0.257,0 0.502,-0.103 0.684,-0.286l5.469,-5.523c0.377,-0.381 0.377,-1 0,-1.381l-16.62,-16.783Z" style="fill:#0561a4;fill-rule:nonzero;"/></g></svg>