<?xml version="1.0" encoding="UTF-8" standalone="no"?><!DOCTYPE svg PUBLIC "-//W3C//DTD SVG 1.1//EN" "http://www.w3.org/Graphics/SVG/1.1/DTD/svg11.dtd"><svg width="100%" height="100%" viewBox="0 0 50 50" version="1.1" xmlns="http://www.w3.org/2000/svg" xmlns:xlink="http://www.w3.org/1999/xlink" xml:space="preserve" style="fill-rule:evenodd;clip-rule:evenodd;stroke-linejoin:round;stroke-miterlimit:1.41421;"><path id="Forma-1" d="M15.094,0c2.133,0 3.337,0.91 4.915,2.779l3.576,4.364l20.755,0c3.092,0.001 5.66,2.76 5.66,6.123l0,30.635c0,3.362 -2.514,6.098 -5.606,6.099l-38.788,0c-3.091,0 -5.606,-2.736 -5.606,-6.099l0,-37.778c0,-3.363 2.568,-6.122 5.66,-6.123l9.434,0Zm29.246,14.286l-38.68,0c-2.256,0.001 -3.773,1.628 -3.773,4.082l0,25.51c0,2.454 1.518,4.082 3.773,4.082l38.68,0c2.256,-0.001 3.773,-1.628 3.773,-4.082l0,-25.51c0,-2.454 -1.517,-4.081 -3.773,-4.082Zm-1.887,8.163c0.42,0.002 0.943,0.566 0.943,1.021c0,0.455 -0.525,1.02 -0.943,1.02l-10.378,0c-0.418,0 -0.943,-0.565 -0.943,-1.02c0,-0.455 0.524,-1.019 0.943,-1.021l10.378,0Zm0,-4.081c0.42,0.001 0.943,0.565 0.943,1.02c0,0.455 -0.523,1.019 -0.943,1.021l-10.378,0c-0.418,0 -0.943,-0.566 -0.943,-1.021c0,-0.455 0.524,-1.019 0.943,-1.02l10.378,0Zm-27.359,-16.327l-9.434,0c-2.256,0.001 -3.773,1.628 -3.773,4.082l0,8.163c1.023,-1.189 2.106,-1.977 3.719,-1.978l38.788,0c1.613,0.001 2.637,0.757 3.719,1.978l0,-1.02c0,-2.454 -1.517,-4.081 -3.773,-4.082l-20.755,0c-0.216,-0.004 -1.744,-0.856 -1.887,-1.02l-2.793,-4.257c-0.003,-0.003 -0.006,-0.006 -0.008,-0.009c-1.294,-1.534 -2.093,-1.857 -3.803,-1.857Z" style="fill:#0561a4;"/></svg>