<?xml version="1.0" encoding="UTF-8" standalone="no"?><!DOCTYPE svg PUBLIC "-//W3C//DTD SVG 1.1//EN" "http://www.w3.org/Graphics/SVG/1.1/DTD/svg11.dtd"><svg width="100%" height="100%" viewBox="0 0 22 22" version="1.1" xmlns="http://www.w3.org/2000/svg" xmlns:xlink="http://www.w3.org/1999/xlink" xml:space="preserve" style="fill-rule:evenodd;clip-rule:evenodd;stroke-linejoin:round;stroke-miterlimit:1.41421;"><g><path d="M0.119,8.049l0.186,0.982c0.156,0.605 0.371,1.194 0.638,1.761c0.259,0.548 0.568,1.075 0.921,1.572c0.153,0.215 0.314,0.424 0.481,0.629c0.103,0.122 0.103,0.122 0.207,0.243l0.481,0.53c0.276,1.045 0.608,2.082 1.036,3.081c0.168,0.392 0.351,0.779 0.559,1.154c0.181,0.329 0.382,0.65 0.61,0.951c0.25,0.329 0.538,0.643 0.887,0.877c0.118,0.079 0.243,0.147 0.374,0.202c0.095,0.041 0.193,0.074 0.292,0.101c0.635,0.17 1.315,0.056 1.927,-0.146c0.094,-0.031 0.187,-0.064 0.279,-0.099l0.287,-0.12l0.582,0.44l1.084,0.668l-0.583,0.301c-1.041,0.501 -2.211,0.855 -3.386,0.735c-0.163,-0.017 -0.325,-0.042 -0.485,-0.078c-0.203,-0.044 -0.402,-0.104 -0.595,-0.179c-0.278,-0.108 -0.543,-0.246 -0.79,-0.411c-0.398,-0.267 -0.748,-0.599 -1.056,-0.96c-0.543,-0.637 -0.966,-1.364 -1.327,-2.11c-0.281,-0.582 -0.524,-1.181 -0.742,-1.788c-0.257,-0.715 -0.48,-1.443 -0.679,-2.176c-0.317,-1.169 -0.575,-2.353 -0.793,-3.544l-0.395,-2.616Z" style="fill:#fff;"/><path d="M10.991,4.279c-0.018,0.002 -0.036,0.003 -0.053,0.004c-0.085,0.004 -0.17,-0.004 -0.252,-0.024c-0.221,-0.053 -0.416,-0.188 -0.538,-0.373c-0.048,-0.074 -0.079,-0.156 -0.119,-0.234c-0.029,-0.054 -0.061,-0.107 -0.094,-0.159c-0.092,-0.139 -0.195,-0.269 -0.31,-0.39c-0.093,-0.097 -0.191,-0.189 -0.295,-0.274c-0.737,-0.608 -1.698,-0.895 -2.647,-0.997c-0.16,-0.017 -0.32,-0.029 -0.48,-0.037c-0.267,-0.013 -0.536,-0.018 -0.802,0.007c-0.367,0.033 -0.728,0.118 -1.066,0.26c-0.783,0.326 -1.396,0.936 -1.808,1.648c-0.423,0.73 -0.648,1.558 -0.721,2.389c-0.141,1.608 0.282,3.243 1.1,4.643c0.288,0.492 0.627,0.952 1.002,1.387c0.265,0.302 0.532,0.604 0.8,0.905c0.598,0.665 1.204,1.324 1.829,1.966c0.459,0.473 0.927,0.937 1.408,1.388c0.374,0.352 0.757,0.697 1.149,1.031c0.343,0.293 0.695,0.579 1.056,0.852c0.274,0.208 0.553,0.409 0.84,0.601c0.236,0.158 0.476,0.309 0.722,0.452c0.197,0.115 0.398,0.224 0.603,0.326c0.16,0.079 0.322,0.153 0.487,0.222c0.124,0.052 0.249,0.1 0.376,0.144c0.723,0.252 1.548,0.386 2.279,0.09c0.132,-0.053 0.257,-0.119 0.375,-0.195c0.393,-0.255 0.709,-0.611 0.981,-0.981c0.227,-0.31 0.425,-0.638 0.606,-0.975c0.205,-0.381 0.387,-0.773 0.553,-1.171c0.475,-1.135 0.831,-2.315 1.133,-3.502c0.259,-1.02 0.474,-2.05 0.658,-3.084c0.151,-0.852 0.283,-1.708 0.381,-2.567l0.014,-0.081c0.019,-0.07 0.021,-0.089 0.05,-0.156c0.065,-0.151 0.176,-0.283 0.316,-0.376c0.069,-0.047 0.146,-0.084 0.226,-0.109c0.328,-0.105 0.698,-0.012 0.932,0.233c0.077,0.08 0.137,0.174 0.178,0.276c0.04,0.102 0.06,0.211 0.058,0.321c0,0.027 -0.003,0.054 -0.005,0.081c-0.019,0.164 -0.039,0.327 -0.06,0.491c-0.153,1.149 -0.343,2.294 -0.575,3.432c-0.204,0.996 -0.439,1.986 -0.719,2.965c-0.195,0.682 -0.412,1.358 -0.661,2.023c-0.225,0.6 -0.475,1.191 -0.767,1.763c-0.352,0.692 -0.764,1.364 -1.285,1.95c-0.314,0.354 -0.671,0.676 -1.077,0.931c-0.494,0.309 -1.057,0.507 -1.64,0.583c-0.405,0.053 -0.818,0.048 -1.223,-0.003c-0.497,-0.062 -0.983,-0.192 -1.451,-0.363c-0.926,-0.339 -1.787,-0.835 -2.595,-1.385c-1.128,-0.768 -2.167,-1.657 -3.156,-2.585c-0.639,-0.602 -1.258,-1.223 -1.862,-1.858c-0.786,-0.825 -1.545,-1.673 -2.296,-2.528c-0.105,-0.121 -0.104,-0.121 -0.207,-0.243c-0.167,-0.205 -0.329,-0.414 -0.481,-0.629c-0.353,-0.497 -0.662,-1.024 -0.921,-1.572c-0.267,-0.567 -0.482,-1.156 -0.638,-1.761c-0.104,-0.402 -0.181,-0.81 -0.232,-1.222c-0.043,-0.355 -0.066,-0.713 -0.067,-1.07c-0.001,-0.262 0.01,-0.525 0.033,-0.786c0.139,-1.581 0.733,-3.171 1.89,-4.324c0.17,-0.17 0.352,-0.329 0.544,-0.475c0.323,-0.246 0.675,-0.456 1.048,-0.622c0.423,-0.189 0.871,-0.321 1.331,-0.394c0.217,-0.035 0.435,-0.055 0.655,-0.067c0.125,-0.004 0.25,-0.006 0.375,-0.005c0.491,0.006 0.98,0.04 1.464,0.118c0.907,0.145 1.793,0.437 2.568,0.921c0.201,0.126 0.395,0.265 0.577,0.415c0.23,0.189 0.315,0.251 0.506,0.477l0,2.282Z" style="fill:#fff;"/><path d="M10.99,1.996l0.14,-0.186c0.202,-0.205 0.423,-0.392 0.657,-0.561c0.767,-0.554 1.674,-0.9 2.609,-1.08c0.534,-0.103 1.078,-0.151 1.622,-0.163c0.116,-0.002 0.231,-0.002 0.347,-0.001c0.221,0.007 0.441,0.022 0.661,0.052c0.462,0.063 0.916,0.185 1.345,0.364c0.453,0.189 0.877,0.442 1.257,0.746c0.189,0.15 0.367,0.313 0.533,0.486c1.165,1.212 1.732,2.868 1.825,4.499c0.015,0.263 0.018,0.527 0.009,0.791l-0.094,0.98c-0.062,0.412 -0.166,0.917 -0.283,1.319c-0.147,0.51 -0.336,1.007 -0.563,1.488c-0.259,0.549 -0.568,1.075 -0.921,1.573c-0.183,0.259 -0.38,0.508 -0.584,0.751l-0.535,0.609l-0.004,0.013l-0.203,0.231c-0.669,0.749 -1.347,1.489 -2.048,2.21c-0.546,0.562 -1.105,1.112 -1.681,1.645c-0.434,0.401 -0.877,0.792 -1.333,1.169l-1.105,0.859l-0.308,-0.14c-0.205,-0.102 -0.406,-0.211 -0.603,-0.326c-0.246,-0.143 -0.487,-0.294 -0.722,-0.452l-0.049,-0.035l0.26,-0.169c0.324,-0.224 0.64,-0.46 0.948,-0.703c0.36,-0.284 0.711,-0.578 1.055,-0.88c0.424,-0.373 0.838,-0.757 1.243,-1.149c0.538,-0.52 1.061,-1.055 1.573,-1.598c0.702,-0.743 1.381,-1.504 2.054,-2.271c0.09,-0.103 0.09,-0.103 0.178,-0.208c0.357,-0.44 0.678,-0.904 0.948,-1.399c0.469,-0.86 0.793,-1.805 0.93,-2.772c0.002,-0.019 0.004,-0.038 0.006,-0.057l0.007,-0.038c0.088,-0.686 0.082,-1.382 -0.032,-2.066c-0.146,-0.878 -0.477,-1.747 -1.049,-2.451c-0.409,-0.503 -0.944,-0.909 -1.567,-1.135c-0.293,-0.107 -0.602,-0.173 -0.914,-0.201c-0.266,-0.024 -0.535,-0.019 -0.802,-0.006c-0.643,0.03 -1.287,0.132 -1.892,0.349c-0.574,0.205 -1.114,0.52 -1.53,0.958c-0.105,0.112 -0.202,0.231 -0.288,0.357c-0.057,0.084 -0.11,0.172 -0.152,0.265l-0.006,0.016c-0.031,0.066 -0.037,0.084 -0.077,0.146c-0.104,0.158 -0.313,0.429 -0.861,0.454l-0.001,-2.283Z" style="fill:#fff;"/></g></svg>