<?xml version="1.0" encoding="UTF-8" standalone="no"?><!DOCTYPE svg PUBLIC "-//W3C//DTD SVG 1.1//EN" "http://www.w3.org/Graphics/SVG/1.1/DTD/svg11.dtd"><svg width="100%" height="100%" viewBox="0 0 16 16" version="1.1" xmlns="http://www.w3.org/2000/svg" xmlns:xlink="http://www.w3.org/1999/xlink" xml:space="preserve" style="fill-rule:evenodd;clip-rule:evenodd;stroke-linejoin:round;stroke-miterlimit:1.41421;"><g><g><path d="M12.725,9.811c-0.328,-0.339 -0.723,-0.521 -1.142,-0.521c-0.415,0 -0.814,0.178 -1.155,0.517l-1.067,1.059c-0.088,-0.047 -0.176,-0.091 -0.26,-0.135c-0.122,-0.06 -0.237,-0.117 -0.335,-0.178c-0.999,-0.631 -1.908,-1.455 -2.779,-2.519c-0.422,-0.531 -0.706,-0.978 -0.912,-1.432c0.277,-0.252 0.534,-0.514 0.783,-0.766c0.095,-0.094 0.19,-0.191 0.284,-0.285c0.709,-0.706 0.709,-1.62 0,-2.325l-0.922,-0.917c-0.105,-0.104 -0.213,-0.212 -0.314,-0.319c-0.203,-0.209 -0.415,-0.424 -0.635,-0.625c-0.328,-0.323 -0.719,-0.494 -1.131,-0.494c-0.413,0 -0.811,0.171 -1.149,0.494l-0.007,0.006l-1.148,1.153c-0.432,0.43 -0.679,0.954 -0.733,1.562c-0.081,0.981 0.21,1.895 0.432,2.493c0.548,1.468 1.365,2.829 2.584,4.287c1.48,1.757 3.26,3.144 5.293,4.122c0.777,0.366 1.814,0.799 2.972,0.873c0.071,0.004 0.145,0.007 0.213,0.007c0.78,0 1.435,-0.279 1.949,-0.833c0.003,-0.007 0.01,-0.01 0.013,-0.017c0.176,-0.212 0.379,-0.403 0.591,-0.608c0.146,-0.138 0.294,-0.282 0.439,-0.433c0.335,-0.346 0.51,-0.75 0.51,-1.163c0,-0.416 -0.179,-0.816 -0.52,-1.152l-1.854,-1.851Zm1.209,3.537c-0.003,0 -0.003,0.004 0,0c-0.132,0.142 -0.267,0.269 -0.412,0.41c-0.219,0.209 -0.442,0.427 -0.652,0.672c-0.341,0.363 -0.743,0.534 -1.27,0.534c-0.05,0 -0.104,0 -0.155,-0.003c-1.003,-0.064 -1.935,-0.454 -2.635,-0.786c-1.911,-0.921 -3.59,-2.228 -4.985,-3.884c-1.151,-1.381 -1.922,-2.657 -2.432,-4.028c-0.314,-0.836 -0.429,-1.488 -0.378,-2.103c0.034,-0.393 0.186,-0.719 0.466,-0.998l1.152,-1.146c0.165,-0.154 0.341,-0.238 0.513,-0.238c0.213,0 0.385,0.128 0.493,0.235l0.01,0.01c0.207,0.192 0.402,0.39 0.609,0.602c0.104,0.107 0.212,0.215 0.32,0.326l0.922,0.917c0.358,0.356 0.358,0.685 0,1.041c-0.098,0.098 -0.192,0.195 -0.29,0.289c-0.284,0.289 -0.554,0.558 -0.848,0.82c-0.006,0.007 -0.013,0.01 -0.017,0.017c-0.29,0.289 -0.236,0.571 -0.175,0.762l0.01,0.03c0.24,0.578 0.577,1.123 1.091,1.771l0.003,0.003c0.932,1.142 1.915,2.033 2.999,2.715c0.139,0.087 0.281,0.158 0.416,0.225c0.121,0.06 0.236,0.118 0.334,0.178c0.014,0.007 0.027,0.017 0.041,0.024c0.115,0.057 0.223,0.084 0.334,0.084c0.28,0 0.456,-0.175 0.513,-0.232l1.156,-1.149c0.115,-0.115 0.297,-0.252 0.51,-0.252c0.209,0 0.381,0.131 0.486,0.245l1.868,1.858c0.348,0.342 0.348,0.695 0.003,1.051Z" style="fill:#0561a4;fill-rule:nonzero;"/><path d="M3.18,0.787l0.041,0.002l0.04,0.003l0.041,0.003l0.04,0.005l0.04,0.006l0.04,0.007l0.039,0.007l0.04,0.009l0.039,0.01l0.039,0.011l0.039,0.012l0.039,0.013l0.038,0.014l0.038,0.015l0.038,0.016l0.037,0.017l0.037,0.017l0.037,0.019l0.037,0.02l0.036,0.021l0.036,0.022l0.036,0.022l0.035,0.024l0.035,0.025l0.034,0.025l0.034,0.027l0.034,0.027l0.033,0.028l0.033,0.03l0.033,0.03l0.031,0.029l0.082,0.077l0.082,0.077l0.081,0.079l0.08,0.079l0.158,0.158l0.155,0.158l0.077,0.081l0.078,0.079l0.157,0.158l0.923,0.917l0.034,0.035l0.032,0.034l0.032,0.035l0.031,0.036l0.03,0.036l0.029,0.036l0.027,0.036l0.027,0.037l0.025,0.037l0.025,0.037l0.023,0.037l0.022,0.038l0.022,0.038l0.02,0.038l0.019,0.039l0.018,0.038l0.017,0.039l0.016,0.039l0.015,0.039l0.013,0.039l0.013,0.039l0.011,0.04l0.011,0.04l0.009,0.039l0.008,0.04l0.008,0.04l0.006,0.04l0.005,0.041l0.003,0.04l0.003,0.04l0.002,0.04l0,0.04l0,0.041l-0.002,0.04l-0.003,0.04l-0.003,0.04l-0.005,0.04l-0.006,0.04l-0.008,0.041l-0.008,0.039l-0.009,0.04l-0.011,0.04l-0.011,0.039l-0.013,0.04l-0.013,0.039l-0.015,0.039l-0.016,0.039l-0.017,0.039l-0.018,0.039l-0.019,0.038l-0.02,0.038l-0.022,0.038l-0.022,0.038l-0.023,0.037l-0.025,0.037l-0.025,0.037l-0.027,0.037l-0.027,0.036l-0.029,0.036l-0.03,0.036l-0.031,0.035l-0.032,0.035l-0.032,0.035l-0.034,0.034l-0.142,0.143l-0.142,0.143l-0.189,0.19l-0.193,0.193l-0.099,0.097l-0.1,0.097l-0.102,0.096l-0.058,0.054l0.013,0.028l0.041,0.084l0.043,0.084l0.045,0.083l0.047,0.085l0.049,0.085l0.052,0.085l0.054,0.087l0.056,0.087l0.06,0.089l0.062,0.089l0.064,0.091l0.068,0.093l0.071,0.094l0.074,0.096l0.076,0.098l0.081,0.098l0.082,0.097l0.082,0.096l0.082,0.094l0.082,0.093l0.083,0.092l0.082,0.09l0.083,0.089l0.084,0.087l0.083,0.087l0.084,0.085l0.085,0.083l0.084,0.083l0.085,0.08l0.085,0.08l0.086,0.078l0.086,0.078l0.086,0.075l0.087,0.075l0.087,0.074l0.088,0.072l0.088,0.071l0.088,0.069l0.089,0.069l0.089,0.067l0.09,0.066l0.09,0.065l0.091,0.064l0.091,0.063l0.092,0.061l0.092,0.061l0.092,0.059l0.036,0.021l0.037,0.021l0.08,0.044l0.085,0.043l0.09,0.045l0.129,0.066l0.066,0.034l0.011,0.006l1.024,-1.015l0.033,-0.032l0.034,-0.031l0.034,-0.031l0.035,-0.03l0.034,-0.028l0.036,-0.028l0.035,-0.027l0.036,-0.026l0.036,-0.024l0.037,-0.024l0.036,-0.023l0.037,-0.022l0.038,-0.02l0.037,-0.02l0.038,-0.019l0.039,-0.017l0.038,-0.017l0.039,-0.016l0.039,-0.014l0.039,-0.014l0.039,-0.012l0.04,-0.011l0.04,-0.011l0.04,-0.009l0.04,-0.008l0.04,-0.007l0.041,-0.006l0.041,-0.005l0.04,-0.004l0.041,-0.003l0.041,-0.001l0.041,-0.001l0.042,0.001l0.041,0.001l0.041,0.003l0.042,0.004l0.04,0.005l0.041,0.006l0.04,0.007l0.041,0.009l0.04,0.009l0.039,0.01l0.04,0.012l0.039,0.013l0.039,0.013l0.039,0.015l0.038,0.016l0.038,0.016l0.038,0.018l0.038,0.019l0.037,0.021l0.037,0.02l0.036,0.022l0.036,0.023l0.036,0.024l0.036,0.025l0.035,0.026l0.034,0.027l0.035,0.028l0.033,0.029l0.034,0.029l0.033,0.031l0.032,0.032l0.032,0.031l1.854,1.851l0.032,0.033l0.032,0.033l0.031,0.034l0.03,0.034l0.029,0.034l0.027,0.035l0.027,0.036l0.026,0.035l0.025,0.036l0.024,0.036l0.023,0.037l0.022,0.037l0.021,0.038l0.019,0.037l0.019,0.038l0.018,0.038l0.017,0.039l0.015,0.038l0.015,0.039l0.014,0.04l0.012,0.039l0.012,0.04l0.01,0.039l0.009,0.041l0.009,0.04l0.007,0.041l0.006,0.04l0.005,0.041l0.004,0.041l0.002,0.041l0.002,0.041l0.001,0.041l-0.001,0.041l-0.002,0.041l-0.002,0.041l-0.004,0.041l-0.005,0.04l-0.006,0.04l-0.007,0.041l-0.008,0.04l-0.009,0.04l-0.01,0.04l-0.011,0.04l-0.013,0.04l-0.013,0.039l-0.014,0.039l-0.016,0.039l-0.016,0.039l-0.017,0.038l-0.019,0.038l-0.019,0.038l-0.021,0.038l-0.021,0.037l-0.022,0.037l-0.024,0.037l-0.024,0.037l-0.026,0.036l-0.026,0.036l-0.027,0.035l-0.028,0.036l-0.03,0.035l-0.03,0.034l-0.031,0.034l-0.032,0.034l-0.11,0.113l-0.111,0.11l-0.111,0.108l-0.109,0.105l-0.157,0.151l-0.077,0.075l-0.074,0.074l-0.073,0.074l-0.07,0.075l-0.068,0.076l-0.033,0.038l-0.031,0.036l-0.001,0.001l-0.009,0.011l-0.003,0.003l-0.006,0.008l-0.049,0.052l-0.051,0.051l-0.052,0.049l-0.052,0.048l-0.054,0.046l-0.054,0.045l-0.055,0.042l-0.057,0.042l-0.057,0.039l-0.057,0.038l-0.059,0.036l-0.059,0.034l-0.061,0.033l-0.061,0.032l-0.062,0.029l-0.062,0.028l-0.064,0.026l-0.064,0.024l-0.065,0.023l-0.066,0.021l-0.067,0.02l-0.068,0.017l-0.068,0.016l-0.068,0.014l-0.07,0.013l-0.071,0.011l-0.071,0.009l-0.071,0.008l-0.073,0.006l-0.073,0.004l-0.074,0.002l-0.075,0.001l-0.054,0l-0.054,-0.002l-0.11,-0.005l-0.11,-0.008l-0.109,-0.01l-0.109,-0.012l-0.107,-0.014l-0.107,-0.016l-0.105,-0.018l-0.105,-0.019l-0.104,-0.02l-0.103,-0.023l-0.102,-0.023l-0.101,-0.025l-0.099,-0.027l-0.099,-0.027l-0.098,-0.029l-0.097,-0.029l-0.095,-0.031l-0.094,-0.031l-0.094,-0.032l-0.092,-0.033l-0.09,-0.033l-0.09,-0.034l-0.088,-0.035l-0.087,-0.035l-0.085,-0.035l-0.167,-0.071l-0.161,-0.071l-0.156,-0.07l-0.149,-0.07l-0.191,-0.093l-0.19,-0.096l-0.188,-0.098l-0.186,-0.101l-0.185,-0.103l-0.183,-0.105l-0.182,-0.108l-0.18,-0.11l-0.179,-0.112l-0.177,-0.115l-0.175,-0.117l-0.174,-0.12l-0.173,-0.122l-0.17,-0.123l-0.169,-0.127l-0.168,-0.128l-0.166,-0.132l-0.164,-0.133l-0.162,-0.135l-0.161,-0.138l-0.16,-0.14l-0.157,-0.142l-0.156,-0.145l-0.154,-0.147l-0.153,-0.149l-0.15,-0.151l-0.149,-0.154l-0.148,-0.155l-0.145,-0.158l-0.144,-0.16l-0.142,-0.163l-0.14,-0.164l-0.114,-0.137l-0.111,-0.137l-0.109,-0.135l-0.107,-0.136l-0.104,-0.135l-0.102,-0.135l-0.1,-0.134l-0.098,-0.135l-0.096,-0.133l-0.093,-0.134l-0.092,-0.134l-0.089,-0.133l-0.087,-0.133l-0.085,-0.133l-0.084,-0.133l-0.081,-0.134l-0.079,-0.133l-0.077,-0.133l-0.076,-0.133l-0.073,-0.134l-0.072,-0.134l-0.069,-0.134l-0.068,-0.134l-0.066,-0.134l-0.065,-0.135l-0.062,-0.136l-0.061,-0.135l-0.059,-0.136l-0.057,-0.137l-0.056,-0.137l-0.054,-0.138l-0.052,-0.138l-0.043,-0.116l-0.044,-0.124l-0.044,-0.131l-0.044,-0.137l-0.043,-0.143l-0.021,-0.074l-0.02,-0.076l-0.02,-0.076l-0.019,-0.078l-0.018,-0.079l-0.018,-0.08l-0.017,-0.082l-0.016,-0.083l-0.014,-0.084l-0.014,-0.084l-0.012,-0.086l-0.011,-0.086l-0.01,-0.088l-0.008,-0.089l-0.006,-0.089l-0.005,-0.09l-0.004,-0.091l-0.001,-0.091l0,-0.092l0.003,-0.093l0.004,-0.093l0.007,-0.094l0.006,-0.059l0.007,-0.058l0.008,-0.058l0.009,-0.057l0.011,-0.056l0.011,-0.056l0.013,-0.056l0.014,-0.055l0.015,-0.054l0.017,-0.055l0.017,-0.053l0.019,-0.053l0.019,-0.052l0.021,-0.052l0.022,-0.052l0.023,-0.051l0.025,-0.05l0.025,-0.05l0.027,-0.049l0.028,-0.049l0.029,-0.048l0.03,-0.048l0.031,-0.047l0.032,-0.046l0.034,-0.046l0.034,-0.045l0.036,-0.045l0.036,-0.044l0.038,-0.044l0.039,-0.043l0.04,-0.042l0.041,-0.041l1.149,-1.153l0.008,-0.008l0.033,-0.031l0.034,-0.03l0.033,-0.03l0.035,-0.028l0.034,-0.027l0.035,-0.026l0.035,-0.026l0.036,-0.024l0.036,-0.024l0.036,-0.023l0.037,-0.021l0.037,-0.021l0.037,-0.02l0.038,-0.019l0.037,-0.018l0.038,-0.017l0.038,-0.015l0.039,-0.015l0.039,-0.014l0.039,-0.013l0.039,-0.012l0.039,-0.011l0.039,-0.01l0.041,-0.009l0.039,-0.007l0.04,-0.007l0.041,-0.006l0.04,-0.005l0.04,-0.003l0.041,-0.003l0.041,-0.002l0.041,0l0.04,0Zm-0.079,0.084l-0.039,0.002l-0.038,0.002l-0.038,0.004l-0.038,0.004l-0.039,0.006l-0.037,0.006l-0.038,0.008l-0.038,0.008l-0.037,0.01l-0.038,0.01l-0.037,0.011l-0.037,0.012l-0.037,0.014l-0.036,0.014l-0.036,0.015l-0.037,0.016l-0.036,0.017l-0.035,0.018l-0.036,0.019l-0.035,0.02l-0.035,0.02l-0.034,0.022l-0.035,0.023l-0.034,0.023l-0.034,0.024l-0.033,0.026l-0.033,0.026l-0.033,0.027l-0.033,0.028l-0.032,0.029l-0.032,0.03l-0.007,0.006l-1.148,1.153l-0.04,0.04l-0.039,0.042l-0.038,0.041l-0.036,0.042l-0.036,0.043l-0.035,0.044l-0.033,0.043l-0.032,0.045l-0.032,0.045l-0.03,0.045l-0.029,0.046l-0.028,0.047l-0.026,0.047l-0.026,0.047l-0.025,0.048l-0.023,0.049l-0.023,0.049l-0.021,0.05l-0.02,0.05l-0.019,0.051l-0.018,0.051l-0.017,0.052l-0.016,0.052l-0.014,0.053l-0.014,0.053l-0.012,0.054l-0.012,0.054l-0.01,0.055l-0.009,0.055l-0.008,0.056l-0.006,0.056l-0.006,0.057l-0.006,0.092l-0.005,0.091l-0.002,0.091l-0.001,0.09l0.002,0.09l0.003,0.089l0.005,0.089l0.006,0.087l0.008,0.087l0.01,0.086l0.01,0.086l0.012,0.084l0.014,0.084l0.014,0.082l0.016,0.082l0.016,0.08l0.018,0.079l0.018,0.078l0.019,0.077l0.019,0.076l0.02,0.074l0.021,0.073l0.042,0.142l0.044,0.136l0.044,0.129l0.043,0.123l0.042,0.116l0.053,0.137l0.053,0.137l0.056,0.136l0.057,0.136l0.058,0.135l0.061,0.135l0.062,0.134l0.064,0.134l0.065,0.134l0.068,0.133l0.069,0.133l0.071,0.133l0.073,0.133l0.075,0.132l0.077,0.133l0.078,0.132l0.081,0.132l0.083,0.133l0.084,0.132l0.087,0.133l0.089,0.132l0.091,0.133l0.093,0.133l0.095,0.133l0.097,0.134l0.1,0.133l0.102,0.135l0.104,0.134l0.106,0.135l0.108,0.135l0.111,0.136l0.113,0.137l0.14,0.163l0.141,0.162l0.143,0.159l0.145,0.157l0.147,0.155l0.148,0.153l0.15,0.15l0.151,0.149l0.154,0.146l0.155,0.143l0.157,0.142l0.158,0.139l0.16,0.137l0.162,0.135l0.163,0.133l0.165,0.13l0.166,0.128l0.169,0.126l0.169,0.123l0.172,0.121l0.173,0.119l0.174,0.117l0.176,0.114l0.178,0.111l0.179,0.11l0.181,0.107l0.183,0.105l0.183,0.102l0.186,0.1l0.187,0.098l0.188,0.095l0.19,0.093l0.149,0.069l0.154,0.071l0.16,0.07l0.166,0.07l0.085,0.035l0.086,0.035l0.088,0.034l0.088,0.034l0.09,0.033l0.091,0.032l0.092,0.032l0.094,0.031l0.094,0.03l0.096,0.03l0.097,0.028l0.097,0.027l0.099,0.026l0.1,0.025l0.101,0.023l0.101,0.022l0.103,0.021l0.103,0.019l0.104,0.017l0.106,0.016l0.106,0.013l0.106,0.012l0.108,0.01l0.108,0.008l0.108,0.005l0.053,0.001l0.052,0.001l0.073,-0.001l0.072,-0.002l0.071,-0.004l0.071,-0.006l0.07,-0.007l0.069,-0.009l0.068,-0.011l0.067,-0.012l0.067,-0.014l0.066,-0.016l0.066,-0.017l0.064,-0.018l0.064,-0.021l0.063,-0.022l0.062,-0.023l0.061,-0.026l0.061,-0.027l0.06,-0.028l0.059,-0.03l0.058,-0.032l0.058,-0.033l0.056,-0.035l0.056,-0.037l0.055,-0.038l0.055,-0.04l0.053,-0.041l0.053,-0.043l0.052,-0.045l0.051,-0.047l0.05,-0.047l0.049,-0.05l0.049,-0.051l0.003,-0.005l0.004,-0.004l0.003,-0.003l0.003,-0.005l0.034,-0.039l0.033,-0.039l0.07,-0.077l0.071,-0.076l0.074,-0.075l0.075,-0.075l0.077,-0.075l0.157,-0.152l0.11,-0.105l0.11,-0.107l0.11,-0.109l0.109,-0.112l0.031,-0.033l0.03,-0.033l0.029,-0.033l0.028,-0.034l0.028,-0.034l0.026,-0.034l0.025,-0.034l0.024,-0.035l0.024,-0.035l0.022,-0.035l0.021,-0.036l0.021,-0.035l0.019,-0.036l0.019,-0.036l0.017,-0.037l0.017,-0.036l0.015,-0.037l0.015,-0.037l0.014,-0.037l0.012,-0.038l0.012,-0.037l0.01,-0.038l0.01,-0.038l0.009,-0.037l0.007,-0.039l0.007,-0.038l0.006,-0.038l0.004,-0.038l0.004,-0.039l0.002,-0.038l0.002,-0.039l0,-0.039l0,-0.039l-0.002,-0.039l-0.002,-0.038l-0.004,-0.039l-0.005,-0.039l-0.005,-0.038l-0.007,-0.038l-0.008,-0.038l-0.009,-0.038l-0.01,-0.038l-0.01,-0.038l-0.012,-0.037l-0.013,-0.037l-0.014,-0.037l-0.015,-0.037l-0.016,-0.036l-0.017,-0.036l-0.017,-0.036l-0.019,-0.036l-0.02,-0.036l-0.021,-0.035l-0.022,-0.035l-0.023,-0.035l-0.023,-0.034l-0.025,-0.034l-0.026,-0.034l-0.027,-0.033l-0.027,-0.033l-0.029,-0.033l-0.03,-0.032l-0.03,-0.033l-0.032,-0.031l-1.854,-1.851l-0.031,-0.032l-0.031,-0.03l-0.032,-0.029l-0.032,-0.029l-0.032,-0.028l-0.033,-0.026l-0.033,-0.026l-0.034,-0.025l-0.033,-0.023l-0.035,-0.023l-0.034,-0.022l-0.035,-0.021l-0.035,-0.02l-0.035,-0.019l-0.036,-0.018l-0.036,-0.017l-0.036,-0.016l-0.036,-0.015l-0.037,-0.014l-0.037,-0.013l-0.037,-0.012l-0.037,-0.01l-0.038,-0.01l-0.038,-0.009l-0.038,-0.008l-0.038,-0.007l-0.038,-0.006l-0.039,-0.004l-0.038,-0.004l-0.039,-0.003l-0.039,-0.001l-0.04,-0.001l-0.038,0.001l-0.039,0.001l-0.039,0.003l-0.038,0.003l-0.039,0.005l-0.038,0.006l-0.038,0.006l-0.038,0.008l-0.038,0.009l-0.038,0.01l-0.037,0.011l-0.038,0.011l-0.037,0.013l-0.037,0.014l-0.036,0.015l-0.037,0.016l-0.036,0.016l-0.036,0.018l-0.036,0.019l-0.036,0.02l-0.035,0.02l-0.035,0.022l-0.035,0.023l-0.035,0.023l-0.034,0.025l-0.034,0.026l-0.034,0.026l-0.033,0.028l-0.033,0.028l-0.033,0.03l-0.032,0.03l-0.033,0.031l-1.067,1.059l-0.066,-0.035l-0.065,-0.034l-0.129,-0.066l-0.09,-0.044l-0.086,-0.045l-0.082,-0.044l-0.039,-0.022l-0.038,-0.023l-0.093,-0.06l-0.093,-0.06l-0.092,-0.062l-0.092,-0.064l-0.092,-0.064l-0.091,-0.066l-0.09,-0.066l-0.09,-0.068l-0.09,-0.069l-0.089,-0.071l-0.088,-0.071l-0.089,-0.073l-0.087,-0.074l-0.088,-0.075l-0.087,-0.076l-0.087,-0.078l-0.086,-0.079l-0.086,-0.08l-0.085,-0.082l-0.085,-0.083l-0.085,-0.084l-0.085,-0.085l-0.084,-0.087l-0.084,-0.088l-0.083,-0.09l-0.084,-0.091l-0.083,-0.092l-0.083,-0.093l-0.082,-0.095l-0.082,-0.097l-0.082,-0.097l-0.082,-0.099l-0.078,-0.099l-0.074,-0.097l-0.072,-0.095l-0.068,-0.093l-0.065,-0.092l-0.063,-0.091l-0.06,-0.09l-0.057,-0.088l-0.055,-0.088l-0.052,-0.086l-0.05,-0.087l-0.048,-0.085l-0.046,-0.086l-0.043,-0.085l-0.042,-0.085l-0.039,-0.085l0.103,-0.094l0.101,-0.096l0.1,-0.096l0.098,-0.097l0.193,-0.192l0.188,-0.191l0.142,-0.142l0.142,-0.143l0.033,-0.033l0.032,-0.034l0.03,-0.034l0.03,-0.034l0.028,-0.034l0.028,-0.035l0.027,-0.035l0.025,-0.035l0.024,-0.035l0.024,-0.036l0.022,-0.035l0.021,-0.036l0.021,-0.036l0.019,-0.037l0.018,-0.036l0.017,-0.037l0.016,-0.037l0.015,-0.037l0.014,-0.037l0.013,-0.037l0.012,-0.037l0.011,-0.038l0.01,-0.037l0.009,-0.038l0.008,-0.037l0.006,-0.038l0.006,-0.038l0.005,-0.038l0.003,-0.038l0.003,-0.038l0.002,-0.038l0,-0.038l0,-0.038l-0.002,-0.037l-0.003,-0.038l-0.003,-0.038l-0.005,-0.038l-0.006,-0.038l-0.006,-0.038l-0.008,-0.037l-0.009,-0.038l-0.01,-0.038l-0.011,-0.037l-0.012,-0.037l-0.013,-0.037l-0.014,-0.038l-0.015,-0.037l-0.016,-0.036l-0.017,-0.037l-0.018,-0.036l-0.019,-0.037l-0.021,-0.036l-0.021,-0.036l-0.022,-0.036l-0.024,-0.035l-0.024,-0.036l-0.025,-0.035l-0.027,-0.034l-0.028,-0.035l-0.028,-0.034l-0.03,-0.035l-0.03,-0.033l-0.032,-0.034l-0.033,-0.033l-0.922,-0.917l-0.158,-0.159l-0.079,-0.08l-0.077,-0.08l-0.154,-0.157l-0.157,-0.158l-0.08,-0.079l-0.081,-0.078l-0.081,-0.077l-0.082,-0.076l-0.031,-0.03l-0.031,-0.029l-0.032,-0.028l-0.032,-0.027l-0.032,-0.026l-0.033,-0.026l-0.033,-0.024l-0.033,-0.023l-0.034,-0.023l-0.034,-0.022l-0.034,-0.02l-0.034,-0.02l-0.035,-0.019l-0.035,-0.018l-0.035,-0.017l-0.036,-0.016l-0.036,-0.015l-0.036,-0.014l-0.036,-0.014l-0.037,-0.012l-0.037,-0.011l-0.036,-0.01l-0.038,-0.01l-0.037,-0.008l-0.037,-0.008l-0.038,-0.006l-0.038,-0.006l-0.038,-0.004l-0.038,-0.004l-0.038,-0.002l-0.039,-0.002l-0.038,0l-0.039,0Zm10.512,14.214l0.001,-0.001l0.002,-0.002l-0.003,0.003Zm-10.427,-13.306l0.038,0.005l0.038,0.006l0.036,0.01l0.035,0.011l0.034,0.013l0.033,0.015l0.032,0.016l0.031,0.018l0.029,0.019l0.028,0.019l0.027,0.02l0.025,0.021l0.024,0.02l0.022,0.021l0.021,0.02l0.01,0.01l0.077,0.072l0.076,0.073l0.076,0.074l0.076,0.074l0.151,0.152l0.153,0.157l0.159,0.161l0.161,0.165l0.922,0.917l0.033,0.033l0.03,0.033l0.029,0.033l0.026,0.033l0.024,0.033l0.022,0.033l0.02,0.032l0.018,0.033l0.016,0.032l0.013,0.032l0.012,0.033l0.009,0.032l0.007,0.032l0.006,0.032l0.003,0.032l0.001,0.032l-0.001,0.033l-0.003,0.032l-0.006,0.032l-0.007,0.032l-0.009,0.032l-0.012,0.033l-0.013,0.032l-0.016,0.032l-0.018,0.033l-0.02,0.032l-0.022,0.033l-0.024,0.033l-0.026,0.033l-0.029,0.033l-0.03,0.033l-0.033,0.033l-0.145,0.146l-0.072,0.072l-0.073,0.071l-0.211,0.213l-0.104,0.104l-0.105,0.103l-0.105,0.101l-0.106,0.101l-0.108,0.099l-0.109,0.099l-0.009,0.008l-0.005,0.004l-0.003,0.005l-0.026,0.027l-0.024,0.027l-0.023,0.027l-0.02,0.026l-0.019,0.027l-0.017,0.027l-0.015,0.026l-0.014,0.027l-0.013,0.026l-0.01,0.026l-0.01,0.026l-0.008,0.025l-0.007,0.026l-0.005,0.025l-0.005,0.025l-0.003,0.024l-0.003,0.025l-0.001,0.024l0,0.024l0,0.023l0.001,0.023l0.002,0.023l0.006,0.044l0.007,0.042l0.01,0.041l0.01,0.039l0.012,0.037l0.01,0.03l0.046,0.108l0.049,0.108l0.051,0.107l0.053,0.107l0.057,0.107l0.059,0.107l0.062,0.107l0.066,0.108l0.068,0.109l0.072,0.11l0.076,0.111l0.078,0.113l0.083,0.114l0.086,0.116l0.091,0.119l0.094,0.12l0.003,0.003l0.088,0.107l0.088,0.104l0.088,0.104l0.088,0.102l0.089,0.1l0.089,0.099l0.09,0.098l0.09,0.096l0.09,0.095l0.091,0.094l0.091,0.092l0.091,0.09l0.092,0.09l0.092,0.087l0.093,0.087l0.093,0.085l0.093,0.084l0.094,0.082l0.095,0.082l0.095,0.079l0.095,0.079l0.096,0.077l0.097,0.076l0.096,0.075l0.098,0.073l0.098,0.072l0.098,0.071l0.099,0.069l0.1,0.069l0.1,0.067l0.101,0.065l0.101,0.065l0.052,0.032l0.053,0.03l0.052,0.03l0.052,0.028l0.104,0.054l0.103,0.051l0.09,0.045l0.086,0.044l0.082,0.044l0.039,0.022l0.037,0.023l0.021,0.012l0.02,0.012l0.043,0.02l0.042,0.017l0.042,0.014l0.041,0.012l0.042,0.009l0.041,0.006l0.041,0.004l0.042,0.002l0.026,-0.001l0.025,-0.001l0.025,-0.003l0.024,-0.003l0.024,-0.004l0.023,-0.005l0.022,-0.006l0.022,-0.006l0.041,-0.014l0.039,-0.016l0.036,-0.017l0.033,-0.019l0.031,-0.019l0.029,-0.02l0.025,-0.019l0.023,-0.019l0.021,-0.018l0.017,-0.016l0.027,-0.026l1.156,-1.149l0.022,-0.022l0.024,-0.022l0.025,-0.022l0.027,-0.022l0.028,-0.021l0.029,-0.021l0.031,-0.02l0.032,-0.019l0.033,-0.018l0.034,-0.016l0.035,-0.014l0.036,-0.012l0.037,-0.01l0.038,-0.007l0.039,-0.005l0.02,-0.001l0.02,0l0.019,0l0.02,0.001l0.037,0.005l0.037,0.007l0.036,0.009l0.035,0.012l0.034,0.013l0.033,0.016l0.031,0.017l0.03,0.018l0.029,0.019l0.028,0.02l0.026,0.021l0.025,0.022l0.024,0.022l0.022,0.021l0.02,0.022l1.868,1.858l0.031,0.032l0.03,0.032l0.027,0.032l0.026,0.033l0.023,0.032l0.022,0.033l0.019,0.032l0.018,0.033l0.015,0.032l0.013,0.033l0.011,0.033l0.01,0.032l0.007,0.033l0.005,0.033l0.003,0.033l0.001,0.033l-0.001,0.033l-0.003,0.032l-0.005,0.033l-0.007,0.034l-0.009,0.033l-0.011,0.033l-0.013,0.033l-0.015,0.033l-0.017,0.033l-0.019,0.033l-0.022,0.034l-0.023,0.033l-0.025,0.033l-0.027,0.034l-0.029,0.033l-0.032,0.033l-0.002,0.001l0,0.001l0,0l0.002,-0.002l-0.049,0.053l-0.05,0.051l-0.102,0.101l-0.104,0.102l-0.107,0.103l-0.082,0.079l-0.083,0.08l-0.082,0.081l-0.083,0.082l-0.081,0.085l-0.081,0.086l-0.081,0.088l-0.079,0.091l-0.032,0.034l-0.032,0.032l-0.033,0.031l-0.034,0.03l-0.033,0.029l-0.034,0.028l-0.035,0.027l-0.035,0.026l-0.035,0.024l-0.036,0.024l-0.037,0.022l-0.037,0.022l-0.037,0.02l-0.038,0.019l-0.038,0.018l-0.039,0.017l-0.04,0.016l-0.04,0.015l-0.04,0.014l-0.041,0.013l-0.042,0.012l-0.042,0.011l-0.043,0.009l-0.044,0.009l-0.044,0.008l-0.045,0.006l-0.046,0.006l-0.046,0.004l-0.047,0.004l-0.047,0.002l-0.049,0.002l-0.049,0l-0.077,0l-0.04,-0.001l-0.038,-0.002l-0.094,-0.007l-0.093,-0.009l-0.093,-0.01l-0.093,-0.012l-0.091,-0.014l-0.092,-0.016l-0.09,-0.017l-0.091,-0.018l-0.089,-0.02l-0.089,-0.021l-0.088,-0.022l-0.087,-0.023l-0.087,-0.024l-0.085,-0.026l-0.085,-0.026l-0.084,-0.027l-0.083,-0.028l-0.083,-0.029l-0.081,-0.029l-0.08,-0.03l-0.079,-0.03l-0.079,-0.031l-0.153,-0.063l-0.149,-0.064l-0.144,-0.063l-0.139,-0.064l-0.134,-0.063l-0.178,-0.088l-0.177,-0.089l-0.176,-0.092l-0.174,-0.094l-0.173,-0.097l-0.172,-0.098l-0.17,-0.101l-0.169,-0.103l-0.167,-0.106l-0.166,-0.107l-0.164,-0.11l-0.163,-0.112l-0.162,-0.114l-0.16,-0.116l-0.158,-0.119l-0.157,-0.12l-0.155,-0.123l-0.154,-0.125l-0.153,-0.127l-0.151,-0.129l-0.149,-0.131l-0.148,-0.134l-0.146,-0.135l-0.144,-0.138l-0.143,-0.139l-0.142,-0.142l-0.139,-0.144l-0.139,-0.146l-0.136,-0.148l-0.135,-0.15l-0.133,-0.153l-0.132,-0.154l-0.107,-0.129l-0.104,-0.129l-0.103,-0.128l-0.1,-0.127l-0.098,-0.127l-0.096,-0.127l-0.094,-0.126l-0.092,-0.126l-0.09,-0.126l-0.087,-0.125l-0.086,-0.125l-0.084,-0.125l-0.082,-0.124l-0.079,-0.125l-0.078,-0.124l-0.076,-0.125l-0.074,-0.124l-0.073,-0.124l-0.07,-0.125l-0.069,-0.124l-0.067,-0.125l-0.065,-0.124l-0.063,-0.125l-0.061,-0.125l-0.06,-0.126l-0.059,-0.126l-0.056,-0.126l-0.055,-0.126l-0.053,-0.127l-0.052,-0.127l-0.05,-0.128l-0.049,-0.128l-0.056,-0.155l-0.027,-0.075l-0.025,-0.075l-0.024,-0.074l-0.024,-0.073l-0.022,-0.072l-0.02,-0.071l-0.02,-0.07l-0.019,-0.07l-0.017,-0.068l-0.017,-0.068l-0.015,-0.067l-0.014,-0.066l-0.013,-0.066l-0.013,-0.065l-0.011,-0.064l-0.01,-0.064l-0.008,-0.063l-0.008,-0.062l-0.007,-0.062l-0.006,-0.061l-0.005,-0.061l-0.003,-0.061l-0.003,-0.06l-0.002,-0.059l0,-0.06l0,-0.058l0.001,-0.059l0.003,-0.058l0.003,-0.058l0.004,-0.058l0.008,-0.073l0.01,-0.071l0.007,-0.035l0.007,-0.035l0.007,-0.035l0.009,-0.034l0.009,-0.033l0.01,-0.034l0.01,-0.032l0.011,-0.033l0.012,-0.032l0.013,-0.032l0.014,-0.032l0.014,-0.031l0.014,-0.031l0.016,-0.03l0.016,-0.03l0.017,-0.03l0.018,-0.03l0.019,-0.029l0.019,-0.029l0.02,-0.029l0.02,-0.028l0.022,-0.028l0.022,-0.028l0.023,-0.027l0.048,-0.054l0.051,-0.053l1.152,-1.146l0.031,-0.028l0.031,-0.026l0.032,-0.025l0.032,-0.023l0.032,-0.021l0.032,-0.02l0.032,-0.018l0.032,-0.016l0.032,-0.014l0.033,-0.012l0.032,-0.011l0.033,-0.009l0.032,-0.006l0.033,-0.005l0.032,-0.003l0.032,-0.001l0.04,0.001Zm-0.067,0.084l-0.027,0.002l-0.028,0.005l-0.028,0.005l-0.028,0.008l-0.028,0.009l-0.029,0.011l-0.028,0.012l-0.029,0.015l-0.029,0.016l-0.029,0.018l-0.029,0.019l-0.029,0.021l-0.03,0.023l-0.029,0.025l-0.028,0.025l-1.15,1.144l-0.049,0.051l-0.046,0.052l-0.022,0.026l-0.021,0.026l-0.02,0.026l-0.02,0.027l-0.019,0.027l-0.018,0.028l-0.017,0.027l-0.017,0.028l-0.016,0.029l-0.015,0.028l-0.015,0.029l-0.014,0.029l-0.013,0.029l-0.013,0.03l-0.012,0.03l-0.011,0.031l-0.011,0.03l-0.01,0.031l-0.009,0.032l-0.009,0.031l-0.008,0.033l-0.007,0.032l-0.007,0.033l-0.006,0.033l-0.01,0.069l-0.007,0.069l-0.004,0.056l-0.003,0.057l-0.003,0.057l-0.001,0.057l0,0.057l0,0.058l0.002,0.058l0.003,0.059l0.003,0.059l0.005,0.059l0.006,0.061l0.006,0.06l0.008,0.061l0.009,0.062l0.01,0.063l0.01,0.063l0.012,0.063l0.013,0.065l0.014,0.065l0.015,0.066l0.016,0.066l0.018,0.068l0.018,0.068l0.02,0.07l0.02,0.07l0.022,0.071l0.023,0.072l0.024,0.073l0.025,0.074l0.026,0.075l0.056,0.154l0.049,0.127l0.049,0.127l0.052,0.126l0.053,0.126l0.054,0.126l0.056,0.124l0.058,0.125l0.059,0.125l0.061,0.124l0.063,0.124l0.065,0.124l0.066,0.124l0.068,0.123l0.07,0.124l0.072,0.123l0.074,0.124l0.075,0.123l0.078,0.124l0.079,0.124l0.081,0.124l0.084,0.124l0.085,0.124l0.087,0.125l0.089,0.125l0.092,0.125l0.093,0.126l0.096,0.126l0.097,0.126l0.1,0.127l0.102,0.127l0.104,0.129l0.107,0.128l0.13,0.153l0.133,0.152l0.134,0.149l0.136,0.147l0.137,0.146l0.139,0.143l0.141,0.141l0.142,0.139l0.144,0.137l0.145,0.134l0.147,0.133l0.149,0.131l0.15,0.128l0.151,0.126l0.153,0.124l0.155,0.122l0.156,0.12l0.157,0.118l0.159,0.116l0.161,0.113l0.162,0.111l0.163,0.109l0.165,0.107l0.167,0.105l0.167,0.103l0.17,0.1l0.17,0.098l0.172,0.096l0.174,0.094l0.174,0.091l0.177,0.089l0.177,0.087l0.133,0.062l0.138,0.064l0.143,0.063l0.147,0.063l0.153,0.063l0.077,0.03l0.079,0.03l0.079,0.03l0.08,0.029l0.082,0.028l0.082,0.028l0.083,0.027l0.084,0.026l0.085,0.025l0.085,0.024l0.086,0.023l0.087,0.022l0.088,0.02l0.088,0.02l0.089,0.018l0.089,0.016l0.09,0.015l0.09,0.014l0.091,0.012l0.091,0.011l0.092,0.008l0.092,0.007l0.036,0.002l0.038,0.001l0.076,0l0.048,0l0.046,-0.002l0.046,-0.002l0.045,-0.004l0.044,-0.004l0.043,-0.005l0.044,-0.007l0.042,-0.007l0.041,-0.008l0.041,-0.009l0.04,-0.011l0.04,-0.011l0.039,-0.012l0.038,-0.013l0.038,-0.014l0.037,-0.015l0.037,-0.016l0.036,-0.018l0.036,-0.018l0.035,-0.019l0.035,-0.02l0.035,-0.021l0.033,-0.022l0.034,-0.024l0.033,-0.024l0.033,-0.026l0.033,-0.026l0.032,-0.028l0.031,-0.028l0.032,-0.03l0.031,-0.032l0.03,-0.031l0.079,-0.09l0.081,-0.089l0.082,-0.087l0.082,-0.086l0.083,-0.083l0.083,-0.082l0.083,-0.08l0.083,-0.079l0.107,-0.103l0.103,-0.101l0.101,-0.1l0.049,-0.05l0.041,-0.044l0.003,-0.005l0.001,-0.001l0.011,-0.01l0.023,-0.025l0.027,-0.031l0.026,-0.031l0.023,-0.031l0.021,-0.03l0.02,-0.03l0.017,-0.03l0.015,-0.03l0.014,-0.029l0.011,-0.029l0.01,-0.029l0.007,-0.028l0.006,-0.029l0.005,-0.028l0.002,-0.028l0.001,-0.027l-0.001,-0.028l-0.003,-0.028l-0.004,-0.027l-0.006,-0.028l-0.008,-0.029l-0.01,-0.028l-0.011,-0.028l-0.014,-0.028l-0.015,-0.03l-0.017,-0.029l-0.02,-0.029l-0.021,-0.029l-0.024,-0.03l-0.025,-0.03l-0.028,-0.03l-0.03,-0.031l-1.868,-1.858l-0.021,-0.021l-0.02,-0.02l-0.021,-0.02l-0.022,-0.02l-0.024,-0.018l-0.025,-0.019l-0.026,-0.017l-0.027,-0.016l-0.027,-0.015l-0.029,-0.014l-0.029,-0.011l-0.03,-0.01l-0.03,-0.008l-0.031,-0.006l-0.032,-0.004l-0.016,-0.001l-0.016,0l-0.017,0l-0.016,0.001l-0.033,0.004l-0.032,0.006l-0.031,0.009l-0.032,0.01l-0.03,0.013l-0.03,0.014l-0.03,0.015l-0.028,0.017l-0.028,0.019l-0.027,0.018l-0.026,0.02l-0.025,0.02l-0.023,0.021l-0.022,0.02l-0.021,0.021l-1.155,1.149l-0.029,0.027l-0.019,0.018l-0.022,0.019l-0.026,0.021l-0.028,0.022l-0.031,0.021l-0.035,0.022l-0.037,0.02l-0.041,0.02l-0.043,0.018l-0.046,0.015l-0.025,0.008l-0.026,0.006l-0.026,0.005l-0.026,0.005l-0.027,0.004l-0.028,0.002l-0.028,0.002l-0.03,0.001l-0.047,-0.002l-0.046,-0.004l-0.047,-0.007l-0.046,-0.01l-0.047,-0.014l-0.046,-0.015l-0.046,-0.019l-0.045,-0.021l-0.007,-0.004l-0.02,-0.012l-0.02,-0.011l-0.038,-0.023l-0.037,-0.021l-0.08,-0.043l-0.085,-0.044l-0.09,-0.045l-0.103,-0.051l-0.105,-0.054l-0.053,-0.029l-0.054,-0.03l-0.054,-0.032l-0.053,-0.033l-0.103,-0.065l-0.101,-0.066l-0.101,-0.068l-0.101,-0.069l-0.099,-0.069l-0.1,-0.072l-0.098,-0.073l-0.099,-0.073l-0.097,-0.076l-0.097,-0.076l-0.097,-0.078l-0.096,-0.079l-0.096,-0.08l-0.095,-0.082l-0.095,-0.083l-0.094,-0.084l-0.093,-0.086l-0.094,-0.087l-0.093,-0.089l-0.092,-0.09l-0.092,-0.091l-0.092,-0.093l-0.091,-0.094l-0.091,-0.095l-0.09,-0.097l-0.09,-0.098l-0.09,-0.099l-0.089,-0.102l-0.089,-0.102l-0.089,-0.104l-0.088,-0.106l-0.085,-0.103l-0.001,-0.001l-0.007,-0.007l-0.094,-0.121l-0.091,-0.119l-0.087,-0.117l-0.083,-0.115l-0.08,-0.114l-0.076,-0.112l-0.073,-0.111l-0.069,-0.111l-0.066,-0.109l-0.063,-0.109l-0.06,-0.109l-0.058,-0.108l-0.054,-0.108l-0.052,-0.109l-0.049,-0.109l-0.048,-0.111l-0.012,-0.035l-0.012,-0.039l-0.011,-0.042l-0.01,-0.045l-0.009,-0.046l-0.006,-0.049l-0.002,-0.026l-0.001,-0.025l-0.001,-0.027l0.001,-0.027l0.001,-0.027l0.003,-0.028l0.004,-0.027l0.005,-0.029l0.007,-0.029l0.007,-0.028l0.009,-0.03l0.011,-0.029l0.012,-0.029l0.014,-0.03l0.016,-0.03l0.017,-0.029l0.019,-0.029l0.021,-0.03l0.023,-0.03l0.024,-0.029l0.026,-0.03l0.023,-0.023l0,0l0.011,-0.013l0.005,-0.004l0.01,-0.009l0.109,-0.098l0.106,-0.099l0.106,-0.099l0.104,-0.101l0.104,-0.103l0.105,-0.103l0.211,-0.214l0.073,-0.071l0.072,-0.072l0.144,-0.145l0.032,-0.032l0.028,-0.031l0.027,-0.031l0.024,-0.03l0.022,-0.03l0.02,-0.03l0.018,-0.029l0.016,-0.029l0.014,-0.029l0.012,-0.028l0.01,-0.028l0.008,-0.027l0.006,-0.027l0.004,-0.027l0.003,-0.027l0.001,-0.027l-0.001,-0.026l-0.003,-0.027l-0.004,-0.027l-0.006,-0.027l-0.008,-0.027l-0.01,-0.028l-0.012,-0.028l-0.014,-0.029l-0.016,-0.028l-0.018,-0.03l-0.02,-0.03l-0.022,-0.03l-0.024,-0.03l-0.027,-0.031l-0.028,-0.031l-0.031,-0.032l-0.922,-0.917l-0.162,-0.165l-0.16,-0.161l-0.152,-0.157l-0.151,-0.151l-0.075,-0.074l-0.075,-0.073l-0.076,-0.072l-0.077,-0.074l-0.011,-0.01l-0.019,-0.019l-0.021,-0.019l-0.022,-0.019l-0.023,-0.018l-0.025,-0.019l-0.025,-0.017l-0.026,-0.017l-0.027,-0.016l-0.028,-0.014l-0.029,-0.013l-0.03,-0.012l-0.03,-0.009l-0.031,-0.008l-0.032,-0.006l-0.032,-0.003l-0.034,-0.002l-0.027,0.001Z" style="fill:#0561a4;"/><path d="M8.636,3.827c0.884,0.147 1.688,0.564 2.33,1.202c0.642,0.639 1.057,1.438 1.209,2.318c0.037,0.222 0.23,0.377 0.45,0.377c0.026,0 0.05,-0.004 0.077,-0.007c0.25,-0.04 0.416,-0.275 0.375,-0.524c-0.182,-1.065 -0.689,-2.036 -1.462,-2.805c-0.774,-0.77 -1.75,-1.274 -2.821,-1.455c-0.25,-0.04 -0.483,0.124 -0.527,0.369c-0.043,0.246 0.119,0.484 0.369,0.525Z" style="fill:#0561a4;fill-rule:nonzero;"/><path d="M15.972,7.062c-0.301,-1.754 -1.132,-3.35 -2.409,-4.62c-1.276,-1.27 -2.881,-2.096 -4.644,-2.395c-0.246,-0.044 -0.479,0.124 -0.523,0.37c-0.041,0.248 0.125,0.48 0.375,0.524c1.574,0.265 3.009,1.008 4.151,2.14c1.141,1.135 1.884,2.563 2.151,4.129c0.037,0.221 0.23,0.376 0.449,0.376c0.027,0 0.051,-0.003 0.078,-0.007c0.247,-0.037 0.416,-0.272 0.372,-0.517Z" style="fill:#0561a4;fill-rule:nonzero;"/></g></g></svg>