<?xml version="1.0" encoding="UTF-8" standalone="no"?><!DOCTYPE svg PUBLIC "-//W3C//DTD SVG 1.1//EN" "http://www.w3.org/Graphics/SVG/1.1/DTD/svg11.dtd"><svg width="100%" height="100%" viewBox="0 0 16 16" version="1.1" xmlns="http://www.w3.org/2000/svg" xmlns:xlink="http://www.w3.org/1999/xlink" xml:space="preserve" style="fill-rule:evenodd;clip-rule:evenodd;stroke-linejoin:round;stroke-miterlimit:1.41421;"><path id="Forma-1" d="M8,16c4.412,0 8,-3.588 8,-8c0,-4.411 -3.589,-8 -8,-8c-4.411,0 -8,3.589 -8,8c0,4.412 3.588,8 8,8Zm0,-14.852c3.78,0 6.852,3.072 6.852,6.852c0,3.78 -3.072,6.852 -6.852,6.852c-3.78,0 -6.852,-3.072 -6.852,-6.852c0,-3.78 3.072,-6.852 6.852,-6.852Zm-0.191,9.834c-0.316,0 -0.575,0.258 -0.575,0.574l0,0.383c0,0.315 0.259,0.574 0.575,0.574c0.315,0 0.574,-0.259 0.574,-0.574l0,-0.383c0,-0.316 -0.259,-0.574 -0.574,-0.574Zm0.275,-7.101c1.023,0.055 1.58,0.5 1.867,0.872c0.397,0.506 0.521,1.193 0.339,1.88c-0.19,0.745 -0.728,1.291 -1.2,1.772c-0.381,0.38 -0.737,0.744 -0.737,1.042c0,0.274 -0.223,0.497 -0.497,0.497c-0.273,0 -0.496,-0.223 -0.496,-0.497c0,-0.703 0.521,-1.225 1.018,-1.738c0.406,-0.414 0.828,-0.836 0.952,-1.325c0.099,-0.397 0.041,-0.761 -0.166,-1.026c-0.248,-0.323 -0.695,-0.489 -1.299,-0.489c-0.646,0 -1.085,0.249 -1.333,0.745c-0.199,0.389 -0.207,0.787 -0.207,0.787c0,0.273 -0.224,0.48 -0.497,0.48l-0.099,-0.01c-0.225,-0.045 -0.389,-0.238 -0.389,-0.47c0,-0.066 0.016,-0.638 0.314,-1.234c0.298,-0.596 0.919,-1.291 2.219,-1.291l0.211,0.005Z" style="fill:#0561a4;"/></svg>