<?xml version="1.0" encoding="UTF-8" standalone="no"?><!DOCTYPE svg PUBLIC "-//W3C//DTD SVG 1.1//EN" "http://www.w3.org/Graphics/SVG/1.1/DTD/svg11.dtd"><svg width="100%" height="100%" viewBox="0 0 50 50" version="1.1" xmlns="http://www.w3.org/2000/svg" xmlns:xlink="http://www.w3.org/1999/xlink" xml:space="preserve" style="fill-rule:evenodd;clip-rule:evenodd;stroke-linejoin:round;stroke-miterlimit:1.41421;"><path id="Forma-1" d="M49.908,11.747c-0.069,-1.448 -1.248,-2.983 -2.742,-3.569l-19.785,-7.775c-0.662,-0.26 -1.515,-0.403 -2.403,-0.403c-0.887,0 -1.74,0.143 -2.402,0.403l-19.786,7.775c-1.497,0.588 -2.67,2.126 -2.728,3.577c-0.029,0.732 -0.674,17.982 2.968,23.633c3.627,5.63 18.868,13.721 19.515,14.062c0.671,0.355 1.538,0.55 2.442,0.55c0.896,0 1.757,-0.192 2.424,-0.542c0.653,-0.342 16.033,-8.438 19.662,-14.07c3.644,-5.655 2.87,-22.909 2.835,-23.641Zm-4.626,22.999c-3.277,5.086 -19.083,13.427 -19.237,13.508c-0.252,0.132 -0.648,0.211 -1.058,0.211c-0.414,0 -0.813,-0.08 -1.067,-0.214c-0.152,-0.081 -16.222,-8.957 -19.501,-14.045c-2.709,-4.204 -2.806,-17.571 -2.615,-22.366c0.021,-0.533 1.525,-2.115 2.075,-2.332l19.786,-7.774c0.317,-0.124 0.808,-0.199 1.313,-0.199c0.506,0 0.997,0.075 1.314,0.199l19.786,7.774c0.552,0.218 2.063,1.804 2.088,2.339c0.228,4.794 -0.175,18.696 -2.884,22.899Zm-12.827,-24.21c-2.127,0 -4.37,1.097 -6.01,1.9c-0.391,0.191 -1.173,0.654 -1.445,0.654c-0.27,0 -1.049,-0.462 -1.44,-0.654c-1.634,-0.801 -3.872,-1.9 -6.015,-1.9c-2.707,0 -5.193,0.988 -6.998,2.78c-1.711,1.699 -2.654,3.933 -2.654,6.292c0,3.299 1.331,7.98 3.559,12.521c0.993,2.023 2.052,3.773 3.061,5.061c1.258,1.605 2.372,2.385 3.405,2.385c0.497,0 1.402,-0.179 1.89,-1.375c0.406,-0.996 0.769,-2.133 1.156,-3.343c0.879,-2.75 2.206,-6.905 3.972,-6.905l0.128,0c0.754,0 1.459,0.629 2.155,1.921c0.74,1.375 1.309,3.224 1.86,5.012c0.368,1.197 0.717,2.329 1.111,3.311c0.479,1.191 1.377,1.369 1.87,1.37c1.03,0 2.143,-0.792 3.403,-2.421c1.007,-1.302 2.068,-3.069 3.066,-5.11c2.24,-4.576 3.577,-9.222 3.577,-12.427c0,-2.359 -0.942,-4.593 -2.653,-6.292c-1.805,-1.792 -4.29,-2.78 -6.998,-2.78Zm-7.391,15.572c1.657,0.016 2.964,0.988 4.032,2.971c0.82,1.524 1.414,3.453 1.988,5.319c0.359,1.165 0.696,2.264 1.065,3.179c0.023,0.057 0.077,0.076 0.132,0.032c0.425,-0.337 0.65,-0.45 1.468,-1.507c0.919,-1.189 1.94,-2.893 2.873,-4.801c2.1,-4.292 3.405,-8.772 3.405,-11.694c0,-3.552 -2.832,-7.227 -7.572,-7.227c-1.593,0 -3.564,0.964 -5.003,1.669c-0.264,0.129 -0.47,0.238 -0.651,0.334c-0.074,0.039 -0.149,0.1 -0.149,0.167c0,0.094 0.823,0.333 1.227,0.47c2.544,0.865 6.056,0.488 6.056,0.689c0,0.295 -2.976,0.838 -4.421,0.838c-1.403,0 -2.766,-0.246 -4.052,-0.73c-0.321,-0.12 -0.606,-0.266 -0.918,-0.429c-0.591,-0.309 -1.092,-0.631 -1.463,-0.877c-0.114,-0.076 -0.237,-0.159 -0.36,-0.244c-0.304,-0.207 -0.618,-0.421 -0.833,-0.542c-1.495,-0.842 -3.118,-1.345 -4.343,-1.345c-4.74,0 -7.572,3.675 -7.572,7.227c0,3.013 1.297,7.529 3.386,11.786c0.926,1.886 1.942,3.571 2.862,4.744c0.833,1.063 1.226,1.471 1.483,1.539c0.105,0.027 0.132,-0.063 0.149,-0.104c0.38,-0.933 0.733,-2.037 1.107,-3.206c0.597,-1.87 1.214,-3.799 2.031,-5.31c1.062,-1.963 2.336,-2.927 3.945,-2.948l0.128,0Z" style="fill:#0561a4;"/></svg>