<?xml version="1.0" encoding="UTF-8" standalone="no"?><!DOCTYPE svg PUBLIC "-//W3C//DTD SVG 1.1//EN" "http://www.w3.org/Graphics/SVG/1.1/DTD/svg11.dtd"><svg width="100%" height="100%" viewBox="0 0 50 50" version="1.1" xmlns="http://www.w3.org/2000/svg" xmlns:xlink="http://www.w3.org/1999/xlink" xml:space="preserve" style="fill-rule:evenodd;clip-rule:evenodd;stroke-linejoin:round;stroke-miterlimit:1.41421;"><path id="Forma-1" d="M32.173,20.634l0,4.859l0.666,-0.195c0.512,-0.151 1.063,0.093 1.232,0.54c0.171,0.448 -0.105,0.931 -0.615,1.079l-1.282,0.375l0,3.32l0.666,-0.194c0.512,-0.151 1.063,0.093 1.232,0.539c0.171,0.448 -0.105,0.931 -0.615,1.08l-1.282,0.374l0,3.321l0.666,-0.195c0.512,-0.151 1.063,0.094 1.232,0.54c0.171,0.447 -0.105,0.931 -0.618,1.08l-1.282,0.374l0,5.643l-1.948,0l0,2.844l-3.41,3.982l-2.922,0l-3.409,-3.982l0,-2.844l-1.948,0l0,-1.935l-0.679,0.188c-0.098,0.028 -0.197,0.041 -0.296,0.041c-0.413,0 -0.796,-0.232 -0.928,-0.595c-0.163,-0.45 0.121,-0.929 0.633,-1.072l1.27,-0.353l0,-3.33l-0.679,0.189c-0.098,0.027 -0.197,0.04 -0.296,0.04c-0.413,0 -0.796,-0.231 -0.928,-0.595c-0.163,-0.449 0.121,-0.929 0.633,-1.071l1.27,-0.353l0,-3.33l-0.679,0.189c-0.098,0.027 -0.197,0.04 -0.296,0.04c-0.413,0 -0.796,-0.231 -0.928,-0.595c-0.163,-0.45 0.121,-0.929 0.633,-1.071l1.27,-0.354l0,-8.573l3.493,-3.059l6.651,0l3.493,3.059Zm16.951,-11.541c-0.797,-2.64 -3.13,-5.161 -6.568,-7.097c-4.236,-2.386 -10.225,-2.652 -15.629,-0.695l-0.19,0.071c-0.092,0.036 -0.183,0.07 -0.272,0.098c-0.453,0.138 -0.801,0.256 -1.084,0.352c-0.9,0.305 -0.901,0.305 -2.379,-0.077c-4.223,-1.089 -9.599,-2.177 -13.721,-0.897c-5.582,1.732 -10.53,7.467 -8.999,16.373c0.181,1.053 0.357,2.115 0.534,3.181c1.278,7.694 2.599,15.65 5.995,22.833l0.116,0.247c0.844,1.799 2.255,4.81 4.712,4.81l0.198,0l0.182,-0.068c2.255,-0.836 3.098,-2.732 3.714,-4.116l-1.815,-0.62c-0.623,1.401 -1.207,2.527 -2.447,3.078c-1.104,-0.241 -2.284,-2.756 -2.742,-3.733l-0.118,-0.251c-3.303,-6.986 -4.607,-14.835 -5.868,-22.424c-0.178,-1.07 -0.354,-2.134 -0.535,-3.19c-0.984,-5.725 1.023,-12.432 7.723,-14.512c3.599,-1.117 8.781,-0.033 12.41,0.898c6.259,3.114 6.258,4.461 6.234,10.028l-0.003,1.126c0,0.472 0.436,0.853 0.974,0.853c0.537,0 0.974,-0.381 0.974,-0.853l0.003,-1.12c0.02,-4.881 0.012,-7.179 -4.438,-9.975c0.267,-0.091 0.592,-0.201 1.02,-0.332c0.136,-0.041 0.27,-0.091 0.406,-0.143l0.16,-0.06c4.823,-1.746 10.123,-1.535 13.831,0.552c3.028,1.706 5.066,3.872 5.738,6.099c2.029,6.716 -0.165,14.704 -2.103,21.752c-0.355,1.296 -0.704,2.564 -1.018,3.791l-0.281,1.115c-0.76,3.031 -1.546,6.165 -3.307,8.868c-0.593,0.909 -1.2,1.413 -1.605,1.393c-0.446,-0.04 -1.678,-0.658 -3.476,-5.509l-1.853,0.527c1.179,3.181 2.711,6.461 5.131,6.679c1.274,0.117 2.45,-0.641 3.496,-2.244c1.907,-2.929 2.726,-6.192 3.517,-9.347l0.28,-1.108c0.312,-1.22 0.658,-2.478 1.012,-3.766c1.99,-7.243 4.246,-15.454 2.091,-22.587Zm-18.895,32.373l0,-3.362l-1.641,0.479c-0.102,0.03 -0.206,0.044 -0.308,0.044c-0.408,0 -0.788,-0.226 -0.924,-0.584c-0.171,-0.448 0.105,-0.93 0.616,-1.079l2.256,-0.659l0,-3.321l-1.641,0.478c-0.102,0.03 -0.206,0.045 -0.308,0.045c-0.408,0 -0.788,-0.226 -0.924,-0.584c-0.17,-0.448 0.105,-0.931 0.616,-1.079l2.256,-0.659l0,-3.322l-1.641,0.479c-0.102,0.03 -0.206,0.044 -0.308,0.044c-0.408,0 -0.788,-0.226 -0.924,-0.583c-0.17,-0.448 0.105,-0.931 0.616,-1.08l2.1,-0.613l-9.584,0l0,2.558l3.601,-1.002c0.511,-0.144 1.061,0.105 1.223,0.555c0.163,0.449 -0.12,0.929 -0.633,1.072l-4.191,1.165l0,3.329l3.601,-1.002c0.511,-0.144 1.061,0.105 1.223,0.555c0.163,0.449 -0.12,0.929 -0.633,1.071l-4.191,1.166l0,3.328l3.601,-1.001c0.511,-0.145 1.061,0.104 1.223,0.554c0.163,0.45 -0.12,0.929 -0.633,1.072l-4.191,1.165l0,0.771l1.948,0l0,3.982l2.435,2.844l0.974,0l2.435,-2.844l0,-3.982l1.951,0Zm-0.002,-17.065l0,-3.06l-2.352,-2.06l-5.038,0l-2.351,2.06l0,3.06l9.741,0Z" style="fill:#0561a4;"/></svg>