<!-- Generated by IcoMoon.io -->
<svg version="1.1" xmlns="http://www.w3.org/2000/svg" width="32" height="32" viewBox="0 0 32 32">
<title>dental-chair</title>
<path d="M2.714 6.433l0.87-0.189c1.002-0.217 1.64-1.209 1.423-2.211l-0.456-2.118c-0.186-0.849-0.952-1.464-1.821-1.464-0.131 0-0.263 0.016-0.393 0.044l-0.87 0.189c-0.484 0.105-0.9 0.393-1.169 0.812-0.271 0.418-0.362 0.915-0.255 1.397l0.46 2.118c0.183 0.849 0.948 1.466 1.819 1.466 0.13 0 0.262-0.015 0.392-0.044zM1.523 4.788l-0.46-2.115c-0.045-0.212-0.005-0.432 0.113-0.616 0.119-0.183 0.301-0.308 0.513-0.355l0.87-0.189c0.056-0.012 0.115-0.017 0.171-0.017 0.383 0 0.717 0.268 0.798 0.64l0.46 2.117c0.095 0.439-0.186 0.872-0.625 0.97l-0.87 0.189c-0.434 0.094-0.877-0.196-0.969-0.625zM31.308 22.551l-8.221-8.204c-0.618-0.618-1.78-1.097-2.653-1.097h-1.138v-1.798c1.025 0 1.86-0.75 1.86-1.671 0-0.924-0.835-1.674-1.86-1.674h-5.242c-1.026 0-1.86 0.75-1.86 1.674 0 0.921 0.834 1.671 1.86 1.671v1.798h-0.954c-0.599 0-1.492-0.371-1.916-0.791l-5.183-5.184c-0.7-0.701-1.93-0.701-2.631 0l-0.63 0.63c-0.349 0.349-0.543 0.817-0.543 1.314 0 0.5 0.194 0.966 0.543 1.316l6.237 6.227c0.617 0.617 1.78 1.099 2.653 1.099h3.217v4.248h-2.152c-0.289 0-0.524 0.235-0.524 0.523v2.154h-1.148c-1.025 0-1.86 0.834-1.86 1.86v2.841c0 1.026 0.835 1.86 1.86 1.86h11.352c1.025 0 1.859-0.835 1.859-1.86v-2.841c0-1.026-0.834-1.86-1.859-1.86h-1.148v-2.154c0-0.288-0.234-0.523-0.523-0.523h-2.153v-4.248h0.426c0.597 0 1.492 0.371 1.916 0.791l7.158 7.158c0.349 0.349 0.816 0.543 1.314 0.543s0.964-0.191 1.316-0.543l0.63-0.63c0.349-0.349 0.543-0.817 0.543-1.313-0.003-0.5-0.194-0.967-0.546-1.316zM13.238 9.78c0-0.339 0.374-0.628 0.816-0.628h5.242c0.442 0 0.817 0.289 0.817 0.628s-0.375 0.625-0.817 0.625h-5.242c-0.442 0-0.816-0.285-0.816-0.625zM15.1 11.452h3.15v1.798h-3.15v-1.798zM23.189 26.646v2.841c0 0.45-0.365 0.814-0.814 0.814h-11.355c-0.449 0-0.813-0.364-0.813-0.814v-2.841c0-0.449 0.365-0.817 0.813-0.817h11.355c0.449 0 0.814 0.367 0.814 0.817zM20.181 24.786h-6.964v-1.63h6.964v1.63zM17.505 22.109h-1.615v-4.25h1.615v4.25zM18.977 16.817h-7.347c-0.596 0-1.492-0.371-1.916-0.794l-6.235-6.227c-0.153-0.154-0.237-0.357-0.237-0.577 0-0.217 0.084-0.423 0.237-0.577l0.63-0.63c0.153-0.152 0.358-0.237 0.577-0.237 0.217 0 0.424 0.084 0.577 0.237l5.183 5.184c0.616 0.618 1.781 1.1 2.653 1.1l7.337-0.002c0.596 0 1.489 0.369 1.913 0.79l6.758 6.743-1.712 1.85-5.765-5.763c-0.618-0.614-1.78-1.096-2.653-1.096zM30.571 24.442l-0.629 0.629c-0.307 0.307-0.847 0.307-1.153 0l-0.656-0.653 1.712-1.852 0.726 0.725c0.154 0.153 0.238 0.357 0.238 0.577 0 0.217-0.084 0.42-0.238 0.574z"></path>
</svg>
