<!-- Generated by IcoMoon.io -->
<svg version="1.1" xmlns="http://www.w3.org/2000/svg" width="32" height="32" viewBox="0 0 32 32">
<title>dental-insument</title>
<path d="M26.009 2.407c0.543-0.548 1.256-0.822 1.97-0.822s1.427 0.274 1.969 0.822c1.087 1.097 1.087 2.883 0 3.98-1.085 1.096-2.853 1.096-3.939 0s-1.086-2.883 0-3.979zM12.161 14.933c-0.723-0.731-0.723-1.92-0.001-2.652 0 0 0.001 0 0.001 0s0 0 0 0c0.351-0.354 0.817-0.549 1.313-0.549s0.962 0.195 1.313 0.549l0.504 0.509-2.625 2.651-0.504-0.509zM20.541 16.326l0.176-0.178c0.584-0.59 0.906-1.375 0.906-2.209 0-0.622-0.179-1.216-0.513-1.723l4.495-4.539c0.705 0.52 1.539 0.78 2.374 0.78 1.030 0 2.061-0.396 2.844-1.188h0.001c1.569-1.584 1.569-4.162-0.001-5.746-1.567-1.583-4.12-1.584-5.689 0-1.42 1.434-1.555 3.682-0.404 5.27l-4.495 4.54c-1.2-0.802-2.836-0.669-3.893 0.397l-0.176 0.178-0.504-0.509c-0.584-0.591-1.361-0.916-2.188-0.916-0.616 0-1.204 0.181-1.707 0.518l-3.174-3.207c-0.987-0.996-2.461-1.384-3.849-1.011-1.038 0.278-2.122-0.059-2.828-0.878-0.92-1.070-0.904-2.671 0.038-3.723 0.537-0.6 1.272-0.931 2.070-0.931 0.342 0 0.619-0.28 0.619-0.625s-0.277-0.625-0.619-0.625c-1.136 0-2.225 0.49-2.989 1.343-1.36 1.52-1.383 3.832-0.053 5.38 1.019 1.182 2.582 1.667 4.079 1.266 0.963-0.259 1.981 0.004 2.656 0.687l3.176 3.207c-0.794 1.213-0.662 2.865 0.394 3.932l0.504 0.509-7.322 7.395c-0.242 0.244-0.242 0.639 0 0.883s0.633 0.244 0.875 0l11.874-11.99c0.723-0.731 1.901-0.731 2.624 0s0.724 1.92 0 2.652l-15.078 15.227-2.625-2.651 3.205-3.237c0.242-0.244 0.242-0.639 0-0.883s-0.633-0.244-0.875 0l-3.642 3.679c-0.242 0.244-0.242 0.639 0 0.883l3.499 3.535c0.116 0.117 0.274 0.183 0.438 0.183v0c0.164 0 0.321-0.066 0.438-0.183l14.465-14.608 10.199 10.3-2.625 2.651-9.057-9.146c-0.241-0.244-0.633-0.244-0.875 0s-0.241 0.639 0 0.883l9.495 9.588c0.116 0.117 0.273 0.183 0.437 0.183s0.321-0.066 0.438-0.183l3.5-3.535c0.241-0.244 0.241-0.64 0-0.884l-10.637-10.741z"></path>
</svg>
