<!-- Generated by IcoMoon.io -->
<svg version="1.1" xmlns="http://www.w3.org/2000/svg" width="26" height="32" viewBox="0 0 26 32">
<title>geo</title>
<path d="M13.014 0.040c-7.168 0-13.014 5.666-13.014 12.638 0 0.844 0.084 1.688 0.252 2.504 0 0.056 0.030 0.11 0.030 0.192 1.432 6.236 11.524 15.604 11.946 15.986 0.224 0.218 0.504 0.3 0.786 0.3s0.562-0.11 0.788-0.3c0.42-0.408 10.454-9.75 11.89-15.85 0-0.054 0.026-0.108 0.026-0.164 0.198-0.872 0.282-1.77 0.282-2.668 0.028-6.972-5.818-12.638-12.986-12.638zM23.47 14.938v0.082c-1.068 4.52-8.066 11.656-10.456 13.97-2.39-2.314-9.416-9.45-10.484-14.080 0-0.054 0-0.080-0.028-0.136-0.142-0.708-0.226-1.416-0.226-2.124 0-5.72 4.808-10.404 10.71-10.404 5.904 0 10.738 4.658 10.738 10.404 0 0.79-0.084 1.554-0.254 2.288z"></path>
<path d="M13.014 7.148c-2.418 0-4.356 1.908-4.356 4.222s1.966 4.222 4.356 4.222c2.39 0 4.358-1.88 4.358-4.222s-1.94-4.222-4.358-4.222zM13.014 13.386c-1.152 0-2.080-0.9-2.080-2.016s0.928-2.016 2.080-2.016c1.152 0 2.080 0.9 2.080 2.016s-0.928 2.016-2.080 2.016z"></path>
</svg>
