<!-- Generated by IcoMoon.io -->
<svg version="1.1" xmlns="http://www.w3.org/2000/svg" width="32" height="32" viewBox="0 0 32 32">
<title>logo</title>
<path d="M0.173 11.708l0.271 1.428c0.227 0.88 0.54 1.737 0.928 2.561 0.377 0.797 0.826 1.564 1.34 2.287 0.223 0.313 0.457 0.617 0.7 0.915 0.15 0.177 0.15 0.177 0.301 0.353l0.7 0.771c0.401 1.52 0.884 3.028 1.507 4.481 0.244 0.57 0.511 1.133 0.813 1.679 0.263 0.479 0.556 0.945 0.887 1.383 0.364 0.479 0.783 0.935 1.29 1.276 0.172 0.115 0.353 0.214 0.544 0.294 0.138 0.060 0.281 0.108 0.425 0.147 0.924 0.247 1.913 0.081 2.803-0.212 0.137-0.045 0.272-0.093 0.406-0.144l0.417-0.175 0.847 0.64 1.577 0.972-0.848 0.438c-1.514 0.729-3.216 1.244-4.925 1.069-0.237-0.025-0.473-0.061-0.705-0.113-0.295-0.064-0.585-0.151-0.865-0.26-0.404-0.157-0.79-0.358-1.149-0.598-0.579-0.388-1.088-0.871-1.536-1.396-0.79-0.927-1.405-1.984-1.93-3.069-0.409-0.847-0.762-1.718-1.079-2.601-0.374-1.040-0.698-2.099-0.988-3.165-0.461-1.7-0.836-3.423-1.153-5.155l-0.575-3.805z"></path>
<path d="M15.987 6.224c-0.026 0.003-0.052 0.004-0.077 0.006-0.124 0.006-0.247-0.006-0.367-0.035-0.321-0.077-0.605-0.273-0.783-0.543-0.070-0.108-0.115-0.227-0.173-0.34-0.042-0.079-0.089-0.156-0.137-0.231-0.134-0.202-0.284-0.391-0.451-0.567-0.135-0.141-0.278-0.275-0.429-0.399-1.072-0.884-2.47-1.302-3.85-1.45-0.233-0.025-0.465-0.042-0.698-0.054-0.388-0.019-0.78-0.026-1.167 0.010-0.534 0.048-1.059 0.172-1.551 0.378-1.139 0.474-2.031 1.361-2.63 2.397-0.615 1.062-0.943 2.266-1.049 3.475-0.205 2.339 0.41 4.717 1.6 6.753 0.419 0.716 0.912 1.385 1.457 2.017 0.385 0.439 0.774 0.879 1.164 1.316 0.87 0.967 1.751 1.926 2.66 2.86 0.668 0.688 1.348 1.363 2.048 2.019 0.544 0.512 1.101 1.014 1.671 1.5 0.499 0.426 1.011 0.842 1.536 1.239 0.399 0.303 0.804 0.595 1.222 0.874 0.343 0.23 0.692 0.449 1.050 0.657 0.287 0.167 0.579 0.326 0.877 0.474 0.233 0.115 0.468 0.223 0.708 0.323 0.18 0.076 0.362 0.145 0.547 0.209 1.052 0.367 2.252 0.561 3.315 0.131 0.192-0.077 0.374-0.173 0.545-0.284 0.572-0.371 1.031-0.889 1.427-1.427 0.33-0.451 0.618-0.928 0.881-1.418 0.298-0.554 0.563-1.124 0.804-1.703 0.691-1.651 1.209-3.367 1.648-5.094 0.377-1.484 0.689-2.982 0.957-4.486 0.22-1.239 0.412-2.484 0.554-3.734l0.020-0.118c0.028-0.102 0.031-0.129 0.073-0.227 0.095-0.22 0.256-0.412 0.46-0.547 0.1-0.068 0.212-0.122 0.329-0.159 0.477-0.153 1.015-0.017 1.356 0.339 0.112 0.116 0.199 0.253 0.259 0.401 0.058 0.148 0.087 0.307 0.084 0.467 0 0.039-0.004 0.079-0.007 0.118-0.028 0.239-0.057 0.476-0.087 0.714-0.223 1.671-0.499 3.337-0.836 4.992-0.297 1.449-0.639 2.889-1.046 4.313-0.284 0.992-0.599 1.975-0.961 2.943-0.327 0.873-0.691 1.732-1.116 2.564-0.512 1.007-1.111 1.984-1.869 2.836-0.457 0.515-0.976 0.983-1.567 1.354-0.719 0.449-1.537 0.737-2.385 0.848-0.589 0.077-1.19 0.070-1.779-0.004-0.723-0.090-1.43-0.279-2.111-0.528-1.347-0.493-2.599-1.215-3.775-2.015-1.641-1.117-3.152-2.41-4.591-3.76-0.929-0.876-1.83-1.779-2.708-2.703-1.143-1.2-2.247-2.433-3.34-3.677-0.153-0.176-0.151-0.176-0.301-0.353-0.243-0.298-0.479-0.602-0.7-0.915-0.513-0.723-0.963-1.489-1.34-2.287-0.388-0.825-0.701-1.681-0.928-2.561-0.151-0.585-0.263-1.178-0.337-1.777-0.063-0.516-0.096-1.037-0.097-1.556-0.001-0.381 0.015-0.764 0.048-1.143 0.202-2.3 1.066-4.612 2.749-6.289 0.247-0.247 0.512-0.479 0.791-0.691 0.47-0.358 0.982-0.663 1.524-0.905 0.615-0.275 1.267-0.467 1.936-0.573 0.316-0.051 0.633-0.080 0.953-0.097 0.182-0.006 0.364-0.009 0.545-0.007 0.714 0.009 1.425 0.058 2.129 0.172 1.319 0.211 2.608 0.636 3.735 1.34 0.292 0.183 0.575 0.385 0.839 0.604 0.335 0.275 0.458 0.365 0.736 0.694v3.319z"></path>
<path d="M15.985 2.903l0.204-0.271c0.294-0.298 0.615-0.57 0.956-0.816 1.116-0.806 2.435-1.309 3.795-1.571 0.777-0.15 1.568-0.22 2.359-0.237 0.169-0.003 0.336-0.003 0.505-0.001 0.321 0.010 0.641 0.032 0.961 0.076 0.672 0.092 1.332 0.269 1.956 0.529 0.659 0.275 1.276 0.643 1.828 1.085 0.275 0.218 0.534 0.455 0.775 0.707 1.695 1.763 2.519 4.172 2.655 6.544 0.022 0.383 0.026 0.767 0.013 1.151l-0.137 1.425c-0.090 0.599-0.241 1.334-0.412 1.919-0.214 0.742-0.489 1.465-0.819 2.164-0.377 0.799-0.826 1.564-1.34 2.288-0.266 0.377-0.553 0.739-0.849 1.092l-0.778 0.886-0.006 0.019-0.295 0.336c-0.973 1.089-1.959 2.166-2.979 3.215-0.794 0.817-1.607 1.617-2.445 2.393-0.631 0.583-1.276 1.152-1.939 1.7l-1.607 1.249-0.448-0.204c-0.298-0.148-0.591-0.307-0.877-0.474-0.358-0.208-0.708-0.428-1.050-0.657l-0.071-0.051 0.378-0.246c0.471-0.326 0.931-0.669 1.379-1.023 0.524-0.413 1.034-0.841 1.535-1.28 0.617-0.543 1.219-1.101 1.808-1.671 0.783-0.756 1.543-1.535 2.288-2.324 1.021-1.081 2.009-2.188 2.988-3.303 0.131-0.15 0.131-0.15 0.259-0.303 0.519-0.64 0.986-1.315 1.379-2.035 0.682-1.251 1.153-2.625 1.353-4.032 0.003-0.028 0.006-0.055 0.009-0.083l0.010-0.055c0.128-0.998 0.119-2.010-0.047-3.005-0.212-1.277-0.694-2.541-1.526-3.565-0.595-0.732-1.373-1.322-2.279-1.651-0.426-0.156-0.876-0.252-1.329-0.292-0.387-0.035-0.778-0.028-1.167-0.009-0.935 0.044-1.872 0.192-2.752 0.508-0.835 0.298-1.62 0.756-2.225 1.393-0.153 0.163-0.294 0.336-0.419 0.519-0.083 0.122-0.16 0.25-0.221 0.385l-0.009 0.023c-0.045 0.096-0.054 0.122-0.112 0.212-0.151 0.23-0.455 0.624-1.252 0.66l-0.001-3.321z"></path>
</svg>
