<!-- Generated by IcoMoon.io -->
<svg version="1.1" xmlns="http://www.w3.org/2000/svg" width="39" height="32" viewBox="0 0 39 32">
<title>mail</title>
<path d="M34.545 0.081h-29.733c-2.656 0-4.812 2.292-4.812 5.113v21.588c0 2.818 2.156 5.11 4.812 5.11h29.723c2.656 0 4.812-2.292 4.812-5.11v-21.58c0.007-2.818-2.149-5.12-4.802-5.12zM37.157 26.782c0 1.531-1.172 2.774-2.612 2.774h-29.733c-1.442 0-2.614-1.243-2.614-2.774v-21.58c0-1.531 1.172-2.774 2.614-2.774h29.723c1.442 0 2.614 1.243 2.614 2.774v21.58h0.007z"></path>
<path d="M24.815 15.719l12.14-11.569c0.448-0.433 0.487-1.169 0.081-1.652-0.406-0.478-1.1-0.519-1.556-0.086l-15.786 15.055-2.59-2.457c-0.007-0.010-0.015-0.017-0.015-0.027-0.059-0.059-0.116-0.111-0.18-0.165l-13.103-12.268c-0.458-0.433-1.15-0.391-1.556 0.094-0.409 0.485-0.367 1.221 0.089 1.652l12.305 11.5 1.654 1.575 2.668 2.533c0.212 0.199 0.473 0.295 0.734 0.295s0.529-0.103 0.734-0.303l2.745-2.612 1.634-1.566z"></path>
</svg>
