<!-- Generated by IcoMoon.io -->
<svg version="1.1" xmlns="http://www.w3.org/2000/svg" width="32" height="32" viewBox="0 0 32 32">
<title>phone-call</title>
<path d="M25.45 19.622c-0.656-0.678-1.446-1.042-2.284-1.042-0.83 0-1.628 0.356-2.31 1.034l-2.134 2.118c-0.176-0.094-0.352-0.182-0.52-0.27-0.244-0.12-0.474-0.234-0.67-0.356-1.998-1.262-3.816-2.91-5.558-5.038-0.844-1.062-1.412-1.956-1.824-2.864 0.554-0.504 1.068-1.028 1.566-1.532 0.19-0.188 0.38-0.382 0.568-0.57 1.418-1.412 1.418-3.24 0-4.65l-1.844-1.834c-0.21-0.208-0.426-0.424-0.628-0.638-0.406-0.418-0.83-0.848-1.27-1.25-0.656-0.646-1.438-0.988-2.262-0.988-0.826 0-1.622 0.342-2.298 0.988l-0.014 0.012-2.296 2.306c-0.864 0.86-1.358 1.908-1.466 3.124-0.162 1.962 0.42 3.79 0.864 4.986 1.096 2.936 2.73 5.658 5.168 8.574 2.96 3.514 6.52 6.288 10.586 8.244 1.554 0.732 3.628 1.598 5.944 1.746 0.142 0.008 0.29 0.014 0.426 0.014 1.56 0 2.87-0.558 3.898-1.666 0.006-0.014 0.020-0.020 0.026-0.034 0.352-0.424 0.758-0.806 1.182-1.216 0.292-0.276 0.588-0.564 0.878-0.866 0.67-0.692 1.020-1.5 1.020-2.326 0-0.832-0.358-1.632-1.040-2.304l-3.708-3.702zM27.868 26.696c-0.006 0-0.006 0.008 0 0-0.264 0.284-0.534 0.538-0.824 0.82-0.438 0.418-0.884 0.854-1.304 1.344-0.682 0.726-1.486 1.068-2.54 1.068-0.1 0-0.208 0-0.31-0.006-2.006-0.128-3.87-0.908-5.27-1.572-3.822-1.842-7.18-4.456-9.97-7.768-2.302-2.762-3.844-5.314-4.864-8.056-0.628-1.672-0.858-2.976-0.756-4.206 0.068-0.786 0.372-1.438 0.932-1.996l2.304-2.292c0.33-0.308 0.682-0.476 1.026-0.476 0.426 0 0.77 0.256 0.986 0.47l0.020 0.020c0.414 0.384 0.804 0.78 1.218 1.204 0.208 0.214 0.424 0.43 0.64 0.652l1.844 1.834c0.716 0.712 0.716 1.37 0 2.082-0.196 0.196-0.384 0.39-0.58 0.578-0.568 0.578-1.108 1.116-1.696 1.64-0.012 0.014-0.026 0.020-0.034 0.034-0.58 0.578-0.472 1.142-0.35 1.524l0.020 0.060c0.48 1.156 1.154 2.246 2.182 3.542l0.006 0.006c1.864 2.284 3.83 4.066 5.998 5.43 0.278 0.174 0.562 0.316 0.832 0.45 0.242 0.12 0.472 0.236 0.668 0.356 0.028 0.014 0.054 0.034 0.082 0.048 0.23 0.114 0.446 0.168 0.668 0.168 0.56 0 0.912-0.35 1.026-0.464l2.312-2.298c0.23-0.23 0.594-0.504 1.020-0.504 0.418 0 0.762 0.262 0.972 0.49l3.736 3.716c0.696 0.684 0.696 1.39 0.006 2.102z"></path>
<path d="M6.36 1.574l0.082 0.004 0.162 0.012 0.080 0.010 0.080 0.012 0.080 0.014 0.078 0.014 0.080 0.018 0.078 0.020 0.078 0.022 0.078 0.024 0.078 0.026 0.076 0.028 0.076 0.030 0.076 0.032 0.148 0.068 0.074 0.038 0.074 0.040 0.072 0.042 0.144 0.088 0.070 0.048 0.070 0.050 0.068 0.050 0.136 0.108 0.066 0.056 0.132 0.12 0.062 0.058 0.328 0.308 0.162 0.158 0.16 0.158 0.316 0.316 0.31 0.316 0.154 0.162 0.156 0.158 0.314 0.316 1.846 1.834 0.068 0.070 0.064 0.068 0.064 0.070 0.062 0.072 0.060 0.072 0.058 0.072 0.054 0.072 0.054 0.074 0.1 0.148 0.046 0.074 0.088 0.152 0.040 0.076 0.038 0.078 0.036 0.076 0.034 0.078 0.032 0.078 0.030 0.078 0.052 0.156 0.044 0.16 0.018 0.078 0.032 0.16 0.012 0.080 0.010 0.082 0.012 0.16 0.004 0.080v0.162l-0.004 0.080-0.012 0.16-0.010 0.080-0.012 0.080-0.016 0.082-0.016 0.078-0.018 0.080-0.022 0.080-0.022 0.078-0.026 0.080-0.026 0.078-0.030 0.078-0.032 0.078-0.034 0.078-0.036 0.078-0.038 0.076-0.040 0.076-0.088 0.152-0.046 0.074-0.1 0.148-0.054 0.074-0.054 0.072-0.058 0.072-0.060 0.072-0.062 0.070-0.128 0.14-0.068 0.068-0.946 0.952-0.386 0.386-0.198 0.194-0.2 0.194-0.204 0.192-0.116 0.108 0.026 0.056 0.082 0.168 0.086 0.168 0.090 0.166 0.094 0.17 0.098 0.17 0.104 0.17 0.108 0.174 0.112 0.174 0.12 0.178 0.124 0.178 0.128 0.182 0.136 0.186 0.142 0.188 0.148 0.192 0.152 0.196 0.162 0.196 0.164 0.194 0.164 0.192 0.164 0.188 0.164 0.186 0.166 0.184 0.164 0.18 0.166 0.178 0.168 0.174 0.166 0.174 0.168 0.17 0.17 0.166 0.168 0.166 0.34 0.32 0.344 0.312 0.172 0.15 0.174 0.15 0.174 0.148 0.176 0.144 0.176 0.142 0.176 0.138 0.178 0.138 0.178 0.134 0.18 0.132 0.18 0.13 0.182 0.128 0.182 0.126 0.368 0.244 0.184 0.118 0.072 0.042 0.074 0.042 0.16 0.088 0.17 0.086 0.18 0.090 0.258 0.132 0.132 0.068 0.022 0.012 2.114-2.094 0.136-0.124 0.070-0.060 0.068-0.056 0.072-0.056 0.070-0.054 0.072-0.052 0.072-0.048 0.074-0.048 0.072-0.046 0.074-0.044 0.076-0.040 0.074-0.040 0.076-0.038 0.078-0.034 0.076-0.034 0.078-0.032 0.156-0.056 0.078-0.024 0.16-0.044 0.080-0.018 0.080-0.016 0.080-0.014 0.082-0.012 0.082-0.010 0.080-0.008 0.082-0.006 0.164-0.004 0.166 0.004 0.082 0.006 0.084 0.008 0.080 0.010 0.082 0.012 0.080 0.014 0.082 0.018 0.080 0.018 0.078 0.020 0.080 0.024 0.156 0.052 0.078 0.030 0.152 0.064 0.076 0.036 0.076 0.038 0.074 0.042 0.074 0.040 0.072 0.044 0.072 0.046 0.072 0.048 0.072 0.050 0.070 0.052 0.068 0.054 0.070 0.056 0.066 0.058 0.068 0.058 0.066 0.062 0.064 0.064 0.064 0.062 3.836 3.834 0.062 0.068 0.060 0.068 0.058 0.068 0.054 0.070 0.054 0.072 0.052 0.070 0.050 0.072 0.048 0.072 0.046 0.074 0.044 0.074 0.042 0.076 0.038 0.074 0.038 0.076 0.036 0.076 0.034 0.078 0.030 0.076 0.030 0.078 0.028 0.080 0.024 0.078 0.024 0.080 0.020 0.078 0.018 0.082 0.018 0.080 0.014 0.082 0.012 0.080 0.010 0.082 0.008 0.082 0.008 0.164 0.002 0.082-0.002 0.082-0.008 0.164-0.008 0.082-0.010 0.080-0.012 0.080-0.014 0.082-0.016 0.080-0.018 0.080-0.020 0.080-0.022 0.080-0.026 0.080-0.026 0.078-0.028 0.078-0.064 0.156-0.034 0.076-0.076 0.152-0.042 0.076-0.042 0.074-0.044 0.074-0.096 0.148-0.104 0.144-0.054 0.070-0.056 0.072-0.060 0.070-0.060 0.068-0.062 0.068-0.064 0.068-0.22 0.226-0.222 0.22-0.222 0.216-0.532 0.512-0.154 0.15-0.148 0.148-0.146 0.148-0.14 0.15-0.136 0.152-0.066 0.076-0.062 0.072-0.002 0.002-0.018 0.022-0.006 0.006-0.012 0.016-0.098 0.104-0.102 0.102-0.104 0.098-0.104 0.096-0.108 0.092-0.108 0.090-0.11 0.084-0.114 0.084-0.114 0.078-0.114 0.076-0.118 0.072-0.118 0.068-0.122 0.066-0.122 0.064-0.124 0.058-0.124 0.056-0.128 0.052-0.128 0.048-0.13 0.046-0.132 0.042-0.134 0.040-0.136 0.034-0.136 0.032-0.136 0.028-0.14 0.026-0.142 0.022-0.142 0.018-0.142 0.016-0.146 0.012-0.146 0.008-0.148 0.004-0.15 0.002h-0.108l-0.108-0.004-0.22-0.010-0.22-0.016-0.218-0.020-0.218-0.024-0.214-0.028-0.214-0.032-0.21-0.036-0.21-0.038-0.208-0.040-0.206-0.046-0.204-0.046-0.202-0.050-0.396-0.108-0.196-0.058-0.194-0.058-0.19-0.062-0.188-0.062-0.188-0.064-0.184-0.066-0.18-0.066-0.18-0.068-0.176-0.070-0.174-0.070-0.17-0.070-0.334-0.142-0.322-0.142-0.312-0.14-0.298-0.14-0.382-0.186-0.38-0.192-0.376-0.196-0.372-0.202-0.37-0.206-0.366-0.21-0.364-0.216-0.36-0.22-0.358-0.224-0.354-0.23-0.35-0.234-0.348-0.24-0.346-0.244-0.34-0.246-0.338-0.254-0.336-0.256-0.332-0.264-0.328-0.266-0.324-0.27-0.322-0.276-0.32-0.28-0.314-0.284-0.312-0.29-0.308-0.294-0.306-0.298-0.3-0.302-0.298-0.308-0.296-0.31-0.29-0.316-0.288-0.32-0.284-0.326-0.28-0.328-0.228-0.274-0.222-0.274-0.218-0.27-0.214-0.272-0.208-0.27-0.204-0.27-0.2-0.268-0.196-0.27-0.192-0.266-0.186-0.268-0.184-0.268-0.178-0.266-0.174-0.266-0.17-0.266-0.168-0.266-0.162-0.268-0.158-0.266-0.154-0.266-0.152-0.266-0.146-0.268-0.144-0.268-0.138-0.268-0.136-0.268-0.132-0.268-0.13-0.27-0.124-0.272-0.122-0.27-0.118-0.272-0.114-0.274-0.112-0.274-0.108-0.276-0.104-0.276-0.086-0.232-0.088-0.248-0.088-0.262-0.088-0.274-0.086-0.286-0.042-0.148-0.080-0.304-0.038-0.156-0.036-0.158-0.036-0.16-0.034-0.164-0.032-0.166-0.056-0.336-0.024-0.172-0.022-0.172-0.020-0.176-0.016-0.178-0.012-0.178-0.010-0.18-0.008-0.182-0.002-0.182v-0.184l0.006-0.186 0.008-0.186 0.014-0.188 0.012-0.118 0.014-0.116 0.016-0.116 0.018-0.114 0.044-0.224 0.026-0.112 0.028-0.11 0.030-0.108 0.034-0.11 0.034-0.106 0.038-0.106 0.038-0.104 0.042-0.104 0.044-0.104 0.046-0.102 0.1-0.2 0.054-0.098 0.056-0.098 0.058-0.096 0.060-0.096 0.062-0.094 0.064-0.092 0.068-0.092 0.068-0.090 0.072-0.090 0.072-0.088 0.076-0.088 0.078-0.086 0.080-0.084 0.082-0.082 2.314-2.322 0.066-0.062 0.068-0.060 0.066-0.060 0.070-0.056 0.068-0.054 0.14-0.104 0.144-0.096 0.072-0.046 0.148-0.084 0.074-0.040 0.076-0.038 0.074-0.036 0.076-0.034 0.076-0.030 0.078-0.030 0.078-0.028 0.078-0.026 0.078-0.024 0.078-0.022 0.078-0.020 0.082-0.018 0.078-0.014 0.080-0.014 0.082-0.012 0.080-0.010 0.162-0.012 0.082-0.004h0.162zM6.202 1.742l-0.154 0.008-0.152 0.016-0.078 0.012-0.074 0.012-0.152 0.032-0.074 0.020-0.076 0.020-0.074 0.022-0.074 0.024-0.074 0.028-0.072 0.028-0.072 0.030-0.074 0.032-0.072 0.034-0.070 0.036-0.072 0.038-0.14 0.080-0.068 0.044-0.070 0.046-0.068 0.046-0.068 0.048-0.132 0.104-0.066 0.054-0.066 0.056-0.064 0.058-0.064 0.060-0.014 0.012-2.376 2.386-0.154 0.166-0.072 0.084-0.072 0.086-0.070 0.088-0.066 0.086-0.128 0.18-0.060 0.090-0.058 0.092-0.056 0.094-0.104 0.188-0.050 0.096-0.092 0.196-0.042 0.1-0.040 0.1-0.038 0.102-0.036 0.102-0.034 0.104-0.032 0.104-0.056 0.212-0.048 0.216-0.020 0.11-0.018 0.11-0.016 0.112-0.012 0.112-0.012 0.114-0.012 0.184-0.010 0.182-0.004 0.182-0.002 0.18 0.004 0.18 0.006 0.178 0.010 0.178 0.012 0.174 0.016 0.174 0.040 0.344 0.024 0.168 0.028 0.168 0.028 0.164 0.032 0.164 0.032 0.16 0.036 0.158 0.036 0.156 0.038 0.154 0.038 0.152 0.040 0.148 0.042 0.146 0.084 0.284 0.088 0.272 0.088 0.258 0.086 0.246 0.084 0.232 0.212 0.548 0.112 0.272 0.114 0.272 0.116 0.27 0.122 0.27 0.124 0.268 0.128 0.268 0.13 0.268 0.136 0.266 0.138 0.266 0.142 0.266 0.146 0.266 0.15 0.264 0.154 0.266 0.156 0.264 0.162 0.264 0.166 0.266 0.168 0.264 0.174 0.266 0.178 0.264 0.182 0.266 0.186 0.266 0.19 0.266 0.194 0.268 0.2 0.266 0.204 0.27 0.208 0.268 0.212 0.27 0.216 0.27 0.222 0.272 0.226 0.274 0.28 0.326 0.282 0.324 0.286 0.318 0.29 0.314 0.294 0.31 0.296 0.306 0.3 0.3 0.302 0.298 0.308 0.292 0.31 0.286 0.314 0.284 0.316 0.278 0.32 0.274 0.324 0.27 0.326 0.266 0.33 0.26 0.332 0.256 0.338 0.252 0.338 0.246 0.344 0.242 0.346 0.238 0.348 0.234 0.352 0.228 0.356 0.222 0.358 0.22 0.362 0.214 0.366 0.21 0.366 0.204 0.372 0.2 0.374 0.196 0.376 0.19 0.38 0.186 0.298 0.138 0.308 0.142 0.32 0.14 0.332 0.14 0.17 0.070 0.172 0.070 0.352 0.136 0.18 0.066 0.182 0.064 0.184 0.064 0.188 0.062 0.188 0.060 0.192 0.060 0.194 0.056 0.194 0.054 0.198 0.052 0.2 0.050 0.202 0.046 0.202 0.044 0.206 0.042 0.206 0.038 0.208 0.034 0.212 0.032 0.212 0.026 0.212 0.024 0.216 0.020 0.216 0.016 0.216 0.010 0.21 0.004 0.146-0.002 0.144-0.004 0.142-0.008 0.142-0.012 0.14-0.014 0.138-0.018 0.136-0.022 0.134-0.024 0.134-0.028 0.132-0.032 0.132-0.034 0.128-0.036 0.128-0.042 0.126-0.044 0.124-0.046 0.122-0.052 0.122-0.054 0.12-0.056 0.118-0.060 0.116-0.064 0.116-0.066 0.112-0.070 0.112-0.074 0.11-0.076 0.11-0.080 0.106-0.082 0.106-0.086 0.104-0.090 0.102-0.094 0.1-0.094 0.098-0.1 0.098-0.102 0.006-0.010 0.014-0.014 0.006-0.010 0.068-0.078 0.066-0.078 0.14-0.154 0.142-0.152 0.148-0.15 0.15-0.15 0.154-0.15 0.314-0.304 0.22-0.21 0.22-0.214 0.22-0.218 0.218-0.224 0.062-0.066 0.060-0.066 0.058-0.066 0.112-0.136 0.052-0.068 0.050-0.068 0.096-0.14 0.044-0.070 0.042-0.072 0.042-0.070 0.076-0.144 0.034-0.074 0.034-0.072 0.060-0.148 0.028-0.074 0.024-0.076 0.024-0.074 0.040-0.152 0.018-0.074 0.014-0.078 0.014-0.076 0.012-0.076 0.008-0.076 0.008-0.078 0.004-0.076 0.004-0.078v-0.156l-0.004-0.078-0.004-0.076-0.008-0.078-0.010-0.078-0.010-0.076-0.014-0.076-0.016-0.076-0.018-0.076-0.040-0.152-0.024-0.074-0.026-0.074-0.028-0.074-0.030-0.074-0.032-0.072-0.068-0.144-0.038-0.072-0.040-0.072-0.042-0.070-0.044-0.070-0.046-0.070-0.046-0.068-0.050-0.068-0.052-0.068-0.108-0.132-0.058-0.066-0.060-0.064-0.060-0.066-0.064-0.062-3.832-3.826-0.128-0.116-0.064-0.056-0.132-0.104-0.068-0.050-0.066-0.046-0.070-0.046-0.068-0.044-0.070-0.042-0.070-0.040-0.070-0.038-0.072-0.036-0.072-0.034-0.072-0.032-0.072-0.030-0.074-0.028-0.074-0.026-0.074-0.024-0.074-0.020-0.076-0.020-0.076-0.018-0.076-0.016-0.076-0.014-0.076-0.012-0.078-0.008-0.076-0.008-0.078-0.006-0.158-0.004-0.154 0.004-0.154 0.012-0.078 0.010-0.152 0.024-0.076 0.016-0.076 0.018-0.076 0.020-0.074 0.022-0.076 0.022-0.074 0.026-0.074 0.028-0.072 0.030-0.074 0.032-0.072 0.032-0.072 0.036-0.072 0.038-0.072 0.040-0.070 0.040-0.070 0.044-0.14 0.092-0.068 0.050-0.136 0.104-0.132 0.112-0.066 0.060-0.13 0.122-2.134 2.118-0.132-0.070-0.13-0.068-0.258-0.132-0.18-0.088-0.172-0.090-0.164-0.088-0.078-0.044-0.076-0.046-0.372-0.24-0.184-0.124-0.368-0.256-0.182-0.132-0.18-0.132-0.18-0.136-0.18-0.138-0.178-0.142-0.176-0.142-0.178-0.146-0.35-0.298-0.174-0.152-0.174-0.156-0.172-0.158-0.172-0.16-0.17-0.164-0.17-0.166-0.17-0.168-0.17-0.17-0.168-0.174-0.168-0.176-0.334-0.362-0.166-0.184-0.166-0.186-0.164-0.19-0.328-0.388-0.164-0.198-0.156-0.198-0.148-0.194-0.144-0.19-0.136-0.186-0.13-0.184-0.126-0.182-0.12-0.18-0.114-0.176-0.11-0.176-0.104-0.172-0.1-0.174-0.096-0.17-0.092-0.172-0.086-0.17-0.084-0.17-0.078-0.17 0.206-0.188 0.202-0.192 0.2-0.192 0.196-0.194 0.386-0.384 0.376-0.382 0.284-0.284 0.284-0.286 0.066-0.066 0.064-0.068 0.12-0.136 0.056-0.068 0.056-0.070 0.054-0.070 0.050-0.070 0.048-0.070 0.048-0.072 0.044-0.070 0.084-0.144 0.038-0.074 0.036-0.072 0.034-0.074 0.032-0.074 0.030-0.074 0.028-0.074 0.026-0.074 0.024-0.074 0.022-0.076 0.020-0.074 0.018-0.076 0.016-0.074 0.024-0.152 0.010-0.076 0.012-0.152 0.004-0.076v-0.152l-0.004-0.074-0.012-0.152-0.010-0.076-0.024-0.152-0.016-0.074-0.018-0.076-0.020-0.076-0.022-0.074-0.024-0.074-0.026-0.074-0.028-0.076-0.030-0.074-0.032-0.072-0.034-0.074-0.036-0.072-0.038-0.074-0.084-0.144-0.044-0.072-0.048-0.070-0.048-0.072-0.050-0.070-0.054-0.068-0.056-0.070-0.056-0.068-0.060-0.070-0.060-0.066-0.064-0.068-0.066-0.066-1.844-1.834-0.316-0.318-0.158-0.16-0.154-0.16-0.308-0.314-0.314-0.316-0.16-0.158-0.162-0.156-0.162-0.154-0.164-0.152-0.062-0.060-0.062-0.058-0.064-0.056-0.064-0.054-0.064-0.052-0.066-0.052-0.066-0.048-0.066-0.046-0.068-0.046-0.068-0.044-0.136-0.080-0.070-0.038-0.070-0.036-0.070-0.034-0.072-0.032-0.072-0.030-0.144-0.056-0.074-0.024-0.074-0.022-0.072-0.020-0.076-0.020-0.148-0.032-0.152-0.024-0.152-0.016-0.154-0.008h-0.154zM27.226 30.17v0zM6.372 3.558l0.076 0.010 0.076 0.012 0.072 0.020 0.070 0.022 0.068 0.026 0.066 0.030 0.064 0.032 0.062 0.036 0.058 0.038 0.056 0.038 0.054 0.040 0.050 0.042 0.048 0.040 0.044 0.042 0.042 0.040 0.020 0.020 0.154 0.144 0.152 0.146 0.304 0.296 0.302 0.304 0.306 0.314 0.318 0.322 0.322 0.33 1.91 1.9 0.060 0.066 0.058 0.066 0.052 0.066 0.048 0.066 0.044 0.066 0.040 0.064 0.036 0.066 0.032 0.064 0.026 0.064 0.024 0.066 0.018 0.064 0.014 0.064 0.012 0.064 0.006 0.064 0.002 0.064-0.002 0.066-0.006 0.064-0.012 0.064-0.014 0.064-0.018 0.064-0.024 0.066-0.026 0.064-0.032 0.064-0.036 0.066-0.040 0.064-0.044 0.066-0.048 0.066-0.052 0.066-0.058 0.066-0.060 0.066-0.066 0.066-0.29 0.292-0.144 0.144-0.146 0.142-0.422 0.426-0.208 0.208-0.21 0.206-0.21 0.202-0.212 0.202-0.216 0.198-0.218 0.198-0.018 0.016-0.010 0.008-0.006 0.010-0.052 0.054-0.048 0.054-0.046 0.054-0.040 0.052-0.038 0.054-0.034 0.054-0.030 0.052-0.028 0.054-0.026 0.052-0.040 0.104-0.016 0.050-0.014 0.052-0.020 0.1-0.006 0.048-0.006 0.050-0.002 0.048v0.094l0.002 0.046 0.004 0.046 0.012 0.088 0.014 0.084 0.020 0.082 0.020 0.078 0.024 0.074 0.020 0.060 0.092 0.216 0.098 0.216 0.102 0.214 0.106 0.214 0.114 0.214 0.118 0.214 0.124 0.214 0.132 0.216 0.136 0.218 0.144 0.22 0.152 0.222 0.156 0.226 0.166 0.228 0.172 0.232 0.182 0.238 0.188 0.24 0.006 0.006 0.176 0.214 0.352 0.416 0.176 0.204 0.178 0.2 0.178 0.198 0.18 0.196 0.18 0.192 0.18 0.19 0.182 0.188 0.182 0.184 0.182 0.18 0.184 0.18 0.184 0.174 0.186 0.174 0.186 0.17 0.186 0.168 0.188 0.164 0.19 0.164 0.38 0.316 0.192 0.154 0.194 0.152 0.192 0.15 0.196 0.146 0.196 0.144 0.196 0.142 0.198 0.138 0.2 0.138 0.2 0.134 0.404 0.26 0.104 0.064 0.106 0.060 0.104 0.060 0.104 0.056 0.208 0.108 0.206 0.102 0.18 0.090 0.172 0.088 0.164 0.088 0.078 0.044 0.074 0.046 0.042 0.024 0.040 0.024 0.086 0.040 0.084 0.034 0.084 0.028 0.082 0.024 0.084 0.018 0.082 0.012 0.082 0.008 0.084 0.004 0.102-0.004 0.050-0.006 0.048-0.006 0.048-0.008 0.046-0.010 0.088-0.024 0.082-0.028 0.078-0.032 0.072-0.034 0.066-0.038 0.062-0.038 0.058-0.040 0.050-0.038 0.046-0.038 0.042-0.036 0.034-0.032 0.054-0.052 2.356-2.342 0.048-0.044 0.050-0.044 0.054-0.044 0.056-0.042 0.058-0.042 0.062-0.040 0.064-0.038 0.066-0.036 0.068-0.032 0.070-0.028 0.072-0.024 0.074-0.020 0.076-0.014 0.078-0.010 0.040-0.002h0.078l0.040 0.002 0.074 0.010 0.074 0.014 0.072 0.018 0.070 0.024 0.068 0.026 0.066 0.032 0.062 0.034 0.060 0.036 0.058 0.038 0.056 0.040 0.052 0.042 0.050 0.044 0.048 0.044 0.044 0.042 0.040 0.044 3.798 3.78 0.060 0.064 0.054 0.064 0.052 0.066 0.046 0.064 0.044 0.066 0.038 0.064 0.036 0.066 0.030 0.064 0.026 0.066 0.022 0.066 0.020 0.064 0.014 0.066 0.010 0.066 0.006 0.066 0.002 0.066-0.002 0.066-0.006 0.064-0.010 0.066-0.014 0.068-0.018 0.066-0.022 0.066-0.026 0.066-0.030 0.066-0.034 0.066-0.038 0.066-0.044 0.068-0.046 0.066-0.050 0.066-0.054 0.068-0.058 0.066-0.064 0.066-0.004 0.002v0.002l0.004-0.004-0.098 0.106-0.1 0.102-0.204 0.202-0.208 0.204-0.544 0.524-0.33 0.326-0.162 0.17-0.162 0.172-0.162 0.176-0.158 0.182-0.064 0.068-0.064 0.064-0.066 0.062-0.068 0.060-0.066 0.058-0.068 0.056-0.070 0.054-0.070 0.052-0.070 0.048-0.072 0.048-0.148 0.088-0.074 0.040-0.076 0.038-0.076 0.036-0.078 0.034-0.080 0.032-0.080 0.030-0.080 0.028-0.082 0.026-0.084 0.024-0.084 0.022-0.086 0.018-0.088 0.018-0.088 0.016-0.090 0.012-0.092 0.012-0.186 0.016-0.192 0.008h-0.252l-0.080-0.002-0.076-0.004-0.188-0.014-0.186-0.018-0.186-0.020-0.186-0.024-0.182-0.028-0.184-0.032-0.18-0.034-0.182-0.036-0.178-0.040-0.178-0.042-0.176-0.044-0.174-0.046-0.174-0.048-0.34-0.104-0.168-0.054-0.166-0.056-0.166-0.058-0.162-0.058-0.16-0.060-0.158-0.060-0.158-0.062-0.306-0.126-0.298-0.128-0.288-0.126-0.278-0.128-0.268-0.126-0.356-0.176-0.354-0.178-0.352-0.184-0.348-0.188-0.346-0.194-0.344-0.196-0.34-0.202-0.338-0.206-0.334-0.212-0.332-0.214-0.328-0.22-0.326-0.224-0.324-0.228-0.32-0.232-0.316-0.238-0.314-0.24-0.31-0.246-0.308-0.25-0.306-0.254-0.302-0.258-0.298-0.262-0.296-0.268-0.292-0.27-0.288-0.276-0.286-0.278-0.284-0.284-0.278-0.288-0.278-0.292-0.272-0.296-0.27-0.3-0.266-0.306-0.264-0.308-0.214-0.258-0.208-0.258-0.206-0.256-0.2-0.254-0.196-0.254-0.192-0.254-0.188-0.252-0.184-0.252-0.18-0.252-0.174-0.25-0.172-0.25-0.168-0.25-0.164-0.248-0.158-0.25-0.156-0.248-0.152-0.25-0.148-0.248-0.146-0.248-0.14-0.25-0.138-0.248-0.134-0.25-0.13-0.248-0.126-0.25-0.122-0.25-0.12-0.252-0.118-0.252-0.112-0.252-0.11-0.252-0.106-0.254-0.104-0.254-0.1-0.256-0.098-0.256-0.112-0.31-0.054-0.15-0.050-0.15-0.048-0.148-0.048-0.146-0.044-0.144-0.040-0.142-0.040-0.14-0.038-0.14-0.068-0.272-0.030-0.134-0.028-0.132-0.026-0.132-0.026-0.13-0.022-0.128-0.020-0.128-0.016-0.126-0.016-0.124-0.014-0.124-0.012-0.122-0.010-0.122-0.006-0.122-0.006-0.12-0.004-0.118v-0.236l0.002-0.118 0.012-0.232 0.008-0.116 0.016-0.146 0.020-0.142 0.042-0.21 0.018-0.068 0.018-0.066 0.020-0.068 0.020-0.064 0.022-0.066 0.024-0.064 0.026-0.064 0.028-0.064 0.056-0.124 0.064-0.12 0.034-0.060 0.036-0.060 0.076-0.116 0.040-0.058 0.040-0.056 0.088-0.112 0.046-0.054 0.096-0.108 0.102-0.106 2.304-2.292 0.062-0.056 0.062-0.052 0.064-0.050 0.064-0.046 0.064-0.042 0.064-0.040 0.064-0.036 0.064-0.032 0.064-0.028 0.066-0.024 0.064-0.022 0.066-0.018 0.064-0.012 0.066-0.010 0.064-0.006 0.064-0.002 0.080 0.002zM6.238 3.726l-0.054 0.004-0.112 0.020-0.056 0.016-0.056 0.018-0.058 0.022-0.056 0.024-0.058 0.030-0.058 0.032-0.058 0.036-0.058 0.038-0.058 0.042-0.060 0.046-0.058 0.050-0.056 0.050-2.3 2.288-0.098 0.102-0.092 0.104-0.044 0.052-0.042 0.052-0.040 0.052-0.040 0.054-0.038 0.054-0.036 0.056-0.034 0.054-0.034 0.056-0.032 0.058-0.030 0.056-0.030 0.058-0.028 0.058-0.026 0.058-0.026 0.060-0.024 0.060-0.022 0.062-0.022 0.060-0.020 0.062-0.018 0.064-0.018 0.062-0.016 0.066-0.014 0.064-0.014 0.066-0.012 0.066-0.020 0.138-0.014 0.138-0.008 0.112-0.012 0.228-0.002 0.114v0.23l0.004 0.116 0.012 0.236 0.010 0.118 0.012 0.122 0.012 0.12 0.016 0.122 0.018 0.124 0.040 0.252 0.024 0.126 0.026 0.13 0.028 0.13 0.030 0.132 0.032 0.132 0.072 0.272 0.080 0.28 0.044 0.142 0.046 0.144 0.048 0.146 0.050 0.148 0.052 0.15 0.112 0.308 0.196 0.508 0.104 0.252 0.106 0.252 0.108 0.252 0.112 0.248 0.116 0.25 0.118 0.25 0.122 0.248 0.126 0.248 0.13 0.248 0.132 0.248 0.136 0.246 0.14 0.248 0.144 0.246 0.148 0.248 0.15 0.246 0.156 0.248 0.158 0.248 0.162 0.248 0.168 0.248 0.17 0.248 0.174 0.25 0.178 0.25 0.184 0.25 0.186 0.252 0.192 0.252 0.194 0.252 0.2 0.254 0.204 0.254 0.208 0.258 0.214 0.256 0.26 0.306 0.266 0.304 0.268 0.298 0.272 0.294 0.274 0.292 0.278 0.286 0.282 0.282 0.284 0.278 0.288 0.274 0.29 0.268 0.294 0.266 0.298 0.262 0.3 0.256 0.302 0.252 0.306 0.248 0.31 0.244 0.312 0.24 0.314 0.236 0.318 0.232 0.322 0.226 0.324 0.222 0.326 0.218 0.33 0.214 0.334 0.21 0.334 0.206 0.34 0.2 0.34 0.196 0.344 0.192 0.348 0.188 0.348 0.182 0.354 0.178 0.354 0.174 0.266 0.124 0.276 0.128 0.286 0.126 0.294 0.126 0.306 0.126 0.154 0.060 0.316 0.12 0.16 0.058 0.328 0.112 0.166 0.054 0.168 0.052 0.17 0.050 0.17 0.048 0.172 0.046 0.174 0.044 0.352 0.080 0.178 0.036 0.178 0.032 0.18 0.030 0.18 0.028 0.182 0.024 0.182 0.022 0.184 0.016 0.184 0.014 0.072 0.004 0.076 0.002h0.248l0.184-0.008 0.178-0.016 0.086-0.010 0.088-0.014 0.084-0.014 0.082-0.016 0.082-0.018 0.16-0.044 0.078-0.024 0.076-0.026 0.076-0.028 0.074-0.030 0.074-0.032 0.144-0.072 0.070-0.038 0.070-0.040 0.070-0.042 0.066-0.044 0.068-0.048 0.066-0.048 0.132-0.104 0.064-0.056 0.062-0.056 0.064-0.060 0.122-0.126 0.158-0.18 0.162-0.178 0.164-0.174 0.164-0.172 0.166-0.166 0.166-0.164 0.166-0.16 0.166-0.158 0.214-0.206 0.206-0.202 0.202-0.2 0.098-0.1 0.082-0.088 0.006-0.010 0.002-0.002 0.022-0.020 0.046-0.050 0.054-0.062 0.052-0.062 0.046-0.062 0.042-0.060 0.040-0.060 0.034-0.060 0.030-0.060 0.028-0.058 0.022-0.058 0.020-0.058 0.014-0.056 0.012-0.058 0.010-0.056 0.004-0.056 0.002-0.054-0.002-0.056-0.006-0.056-0.008-0.054-0.012-0.056-0.016-0.058-0.020-0.056-0.022-0.056-0.058-0.116-0.034-0.058-0.040-0.058-0.042-0.058-0.048-0.060-0.050-0.060-0.056-0.060-0.060-0.062-3.904-3.878-0.048-0.036-0.050-0.038-0.052-0.034-0.054-0.032-0.054-0.030-0.058-0.028-0.058-0.022-0.060-0.020-0.060-0.016-0.062-0.012-0.064-0.008-0.032-0.002h-0.066l-0.032 0.002-0.066 0.008-0.064 0.012-0.062 0.018-0.064 0.020-0.060 0.026-0.060 0.028-0.060 0.030-0.056 0.034-0.056 0.038-0.054 0.036-0.052 0.040-0.050 0.040-0.046 0.042-0.044 0.040-0.042 0.042-2.31 2.298-0.058 0.054-0.038 0.036-0.044 0.038-0.052 0.042-0.056 0.044-0.062 0.042-0.070 0.044-0.074 0.040-0.082 0.040-0.086 0.036-0.092 0.030-0.050 0.016-0.052 0.012-0.104 0.020-0.054 0.008-0.112 0.008-0.060 0.002-0.094-0.004-0.092-0.008-0.094-0.014-0.092-0.020-0.094-0.028-0.092-0.030-0.092-0.038-0.090-0.042-0.014-0.008-0.040-0.024-0.040-0.022-0.076-0.046-0.074-0.042-0.16-0.086-0.17-0.088-0.18-0.090-0.206-0.102-0.21-0.108-0.106-0.058-0.108-0.060-0.108-0.064-0.106-0.066-0.206-0.13-0.202-0.132-0.202-0.136-0.202-0.138-0.198-0.138-0.2-0.144-0.196-0.146-0.198-0.146-0.388-0.304-0.194-0.156-0.192-0.158-0.192-0.16-0.19-0.164-0.19-0.166-0.188-0.168-0.374-0.346-0.186-0.178-0.184-0.18-0.184-0.182-0.184-0.186-0.182-0.188-0.182-0.19-0.18-0.194-0.18-0.196-0.18-0.198-0.356-0.408-0.178-0.208-0.176-0.212-0.17-0.206-0.016-0.016-0.188-0.242-0.182-0.238-0.174-0.234-0.166-0.23-0.16-0.228-0.152-0.224-0.146-0.222-0.138-0.222-0.132-0.218-0.126-0.218-0.12-0.218-0.116-0.216-0.108-0.216-0.104-0.218-0.098-0.218-0.096-0.222-0.024-0.070-0.024-0.078-0.022-0.084-0.020-0.090-0.018-0.092-0.012-0.098-0.004-0.052-0.002-0.050-0.002-0.054 0.004-0.108 0.006-0.056 0.008-0.054 0.010-0.058 0.014-0.058 0.014-0.056 0.018-0.060 0.022-0.058 0.024-0.058 0.028-0.060 0.032-0.060 0.034-0.058 0.038-0.058 0.042-0.060 0.046-0.060 0.048-0.058 0.052-0.060 0.046-0.046 0.022-0.026 0.010-0.008 0.238-0.214 0.424-0.396 0.208-0.202 0.208-0.206 0.21-0.206 0.422-0.428 0.146-0.142 0.144-0.144 0.288-0.29 0.064-0.064 0.056-0.062 0.054-0.062 0.048-0.060 0.044-0.060 0.040-0.060 0.036-0.058 0.032-0.058 0.028-0.058 0.024-0.056 0.020-0.056 0.016-0.054 0.012-0.054 0.008-0.054 0.006-0.054 0.002-0.054-0.002-0.052-0.006-0.054-0.008-0.054-0.012-0.054-0.016-0.054-0.020-0.056-0.024-0.056-0.028-0.058-0.032-0.056-0.036-0.060-0.040-0.060-0.044-0.060-0.048-0.060-0.054-0.062-0.056-0.062-0.062-0.064-1.844-1.834-0.324-0.33-0.32-0.322-0.304-0.314-0.302-0.302-0.15-0.148-0.15-0.146-0.152-0.144-0.154-0.148-0.022-0.020-0.038-0.038-0.042-0.038-0.044-0.038-0.046-0.036-0.050-0.038-0.050-0.034-0.052-0.034-0.054-0.032-0.056-0.028-0.058-0.026-0.060-0.024-0.060-0.018-0.062-0.016-0.064-0.012-0.064-0.006-0.068-0.004-0.054 0.002z"></path>
<path d="M17.272 7.654c1.768 0.294 3.376 1.128 4.66 2.404 1.284 1.278 2.114 2.876 2.418 4.636 0.074 0.444 0.46 0.754 0.9 0.754 0.052 0 0.1-0.008 0.154-0.014 0.5-0.080 0.832-0.55 0.75-1.048-0.364-2.13-1.378-4.072-2.924-5.61-1.548-1.54-3.5-2.548-5.642-2.91-0.5-0.080-0.966 0.248-1.054 0.738-0.086 0.492 0.238 0.968 0.738 1.050z"></path>
<path d="M31.944 14.124c-0.602-3.508-2.264-6.7-4.818-9.24-2.552-2.54-5.762-4.192-9.288-4.79-0.492-0.088-0.958 0.248-1.046 0.74-0.082 0.496 0.25 0.96 0.75 1.048 3.148 0.53 6.018 2.016 8.302 4.28 2.282 2.27 3.768 5.126 4.302 8.258 0.074 0.442 0.46 0.752 0.898 0.752 0.054 0 0.102-0.006 0.156-0.014 0.494-0.074 0.832-0.544 0.744-1.034z"></path>
</svg>
