<!-- Generated by IcoMoon.io -->
<svg version="1.1" xmlns="http://www.w3.org/2000/svg" width="32" height="32" viewBox="0 0 32 32">
<title>question</title>
<path d="M16 32c8.824 0 16-7.176 16-16 0-8.822-7.178-16-16-16s-16 7.178-16 16c0 8.824 7.176 16 16 16zM16 2.296c7.56 0 13.704 6.144 13.704 13.704s-6.144 13.704-13.704 13.704c-7.56 0-13.704-6.144-13.704-13.704s6.144-13.704 13.704-13.704zM15.618 21.964c-0.632 0-1.15 0.516-1.15 1.148v0.766c0 0.63 0.518 1.148 1.15 1.148 0.63 0 1.148-0.518 1.148-1.148v-0.766c0-0.632-0.518-1.148-1.148-1.148zM16.168 7.762c2.046 0.11 3.16 1 3.734 1.744 0.794 1.012 1.042 2.386 0.678 3.76-0.38 1.49-1.456 2.582-2.4 3.544-0.762 0.76-1.474 1.488-1.474 2.084 0 0.548-0.446 0.994-0.994 0.994-0.546 0-0.992-0.446-0.992-0.994 0-1.406 1.042-2.45 2.036-3.476 0.812-0.828 1.656-1.672 1.904-2.65 0.198-0.794 0.082-1.522-0.332-2.052-0.496-0.646-1.39-0.978-2.598-0.978-1.292 0-2.17 0.498-2.666 1.49-0.398 0.778-0.414 1.574-0.414 1.574 0 0.546-0.448 0.96-0.994 0.96l-0.198-0.020c-0.45-0.090-0.778-0.476-0.778-0.94 0-0.132 0.032-1.276 0.628-2.468s1.838-2.582 4.438-2.582l0.422 0.010z"></path>
</svg>
