<!-- Generated by IcoMoon.io -->
<svg version="1.1" xmlns="http://www.w3.org/2000/svg" width="32" height="32" viewBox="0 0 32 32">
<title>tooth-repair</title>
<path d="M20.591 13.206v3.11l0.426-0.125c0.328-0.097 0.68 0.060 0.788 0.346 0.109 0.287-0.067 0.596-0.394 0.691l-0.82 0.24v2.125l0.426-0.124c0.328-0.097 0.68 0.060 0.788 0.345 0.109 0.287-0.067 0.596-0.394 0.691l-0.82 0.239v2.125l0.426-0.125c0.328-0.097 0.68 0.060 0.788 0.346 0.109 0.286-0.067 0.596-0.396 0.691l-0.82 0.239v3.612h-1.247v1.82l-2.182 2.548h-1.87l-2.182-2.548v-1.82h-1.247v-1.238l-0.435 0.12c-0.063 0.018-0.126 0.026-0.189 0.026-0.264 0-0.509-0.148-0.594-0.381-0.104-0.288 0.077-0.595 0.405-0.686l0.813-0.226v-2.131l-0.435 0.121c-0.063 0.017-0.126 0.026-0.189 0.026-0.264 0-0.509-0.148-0.594-0.381-0.104-0.287 0.077-0.595 0.405-0.685l0.813-0.226v-2.131l-0.435 0.121c-0.063 0.017-0.126 0.026-0.189 0.026-0.264 0-0.509-0.148-0.594-0.381-0.104-0.288 0.077-0.595 0.405-0.685l0.813-0.227v-5.487l2.236-1.958h4.257l2.236 1.958zM31.439 5.82c-0.51-1.69-2.003-3.303-4.204-4.542-2.711-1.527-6.544-1.697-10.003-0.445l-0.122 0.045c-0.059 0.023-0.117 0.045-0.174 0.063-0.29 0.088-0.513 0.164-0.694 0.225-0.576 0.195-0.577 0.195-1.523-0.049-2.703-0.697-6.143-1.393-8.781-0.574-3.572 1.108-6.739 4.779-5.759 10.479 0.116 0.674 0.228 1.354 0.342 2.036 0.818 4.924 1.663 10.016 3.837 14.613l0.074 0.158c0.54 1.151 1.443 3.078 3.016 3.078h0.127l0.116-0.044c1.443-0.535 1.983-1.748 2.377-2.634l-1.162-0.397c-0.399 0.897-0.772 1.617-1.566 1.97-0.707-0.154-1.462-1.764-1.755-2.389l-0.076-0.161c-2.114-4.471-2.948-9.494-3.756-14.351-0.114-0.685-0.227-1.366-0.342-2.042-0.63-3.664 0.655-7.956 4.943-9.288 2.303-0.715 5.62-0.021 7.942 0.575 4.006 1.993 4.005 2.855 3.99 6.418l-0.002 0.721c0 0.302 0.279 0.546 0.623 0.546s0.623-0.244 0.623-0.546l0.002-0.717c0.013-3.124 0.008-4.595-2.84-6.384 0.171-0.058 0.379-0.129 0.653-0.212 0.087-0.026 0.173-0.058 0.26-0.092l0.102-0.038c3.087-1.117 6.479-0.982 8.852 0.353 1.938 1.092 3.242 2.478 3.672 3.903 1.299 4.298-0.106 9.411-1.346 13.921-0.227 0.829-0.451 1.641-0.652 2.426l-0.18 0.714c-0.486 1.94-0.989 3.946-2.116 5.676-0.38 0.582-0.768 0.904-1.027 0.892-0.285-0.026-1.074-0.421-2.225-3.526l-1.186 0.337c0.755 2.036 1.735 4.135 3.284 4.275 0.815 0.075 1.568-0.41 2.237-1.436 1.22-1.875 1.745-3.963 2.251-5.982l0.179-0.709c0.2-0.781 0.421-1.586 0.648-2.41 1.274-4.636 2.717-9.891 1.338-14.456zM19.347 26.538v-2.152l-1.050 0.307c-0.065 0.019-0.132 0.028-0.197 0.028-0.261 0-0.504-0.145-0.591-0.374-0.109-0.287 0.067-0.595 0.394-0.691l1.444-0.422v-2.125l-1.050 0.306c-0.065 0.019-0.132 0.029-0.197 0.029-0.261 0-0.504-0.145-0.591-0.374-0.109-0.287 0.067-0.596 0.394-0.691l1.444-0.422v-2.126l-1.050 0.307c-0.065 0.019-0.132 0.028-0.197 0.028-0.261 0-0.504-0.145-0.591-0.373-0.109-0.287 0.067-0.596 0.394-0.691l1.344-0.392h-6.134v1.637l2.305-0.641c0.327-0.092 0.679 0.067 0.783 0.355s-0.077 0.595-0.405 0.686l-2.682 0.746v2.131l2.305-0.641c0.327-0.092 0.679 0.067 0.783 0.355s-0.077 0.595-0.405 0.685l-2.682 0.746v2.13l2.305-0.641c0.327-0.093 0.679 0.067 0.783 0.355s-0.077 0.595-0.405 0.686l-2.682 0.746v0.493h1.247v2.548l1.558 1.82h0.623l1.558-1.82v-2.548h1.249zM19.345 15.617v-1.958l-1.505-1.318h-3.224l-1.505 1.318v1.958h6.234z"></path>
</svg>
